RobotoDelta-wghtmax-opszmax.ufo
<glyph name="exclam" format="2">
  <advance width="649"/>
  <unicode hex="0021"/>
  <outline>
    <contour>
      <point x="136" y="133" type="qcurve" smooth="yes"/>
      <point x="136" y="69"/>
      <point x="233" y="-22"/>
      <point x="324" y="-22" type="qcurve" smooth="yes"/>
      <point x="415" y="-22"/>
      <point x="513" y="69"/>
      <point x="513" y="133" type="qcurve" smooth="yes"/>
      <point x="513" y="197"/>
      <point x="415" y="288"/>
      <point x="324" y="288" type="qcurve" smooth="yes"/>
      <point x="233" y="288"/>
      <point x="136" y="197"/>
    </contour>
    <contour>
      <point x="192" y="455" type="line"/>
      <point x="457" y="455" type="line"/>
      <point x="483" y="1456" type="line"/>
      <point x="166" y="1456" type="line"/>
    </contour>
  </outline>
</glyph>
<glyph name="ampersand" format="1">
  <advance width="1295"/>
  <unicode hex="0026"/>
  <outline>
    <contour>
      <point x="30" y="380" type="qcurve" smooth="yes"/>
      <point x="30" y="215"/>
      <point x="298" y="-20"/>
      <point x="542" y="-20" type="qcurve" smooth="yes"/>
      <point x="835" y="-20"/>
      <point x="1232" y="380"/>
      <point x="1232" y="674" type="qcurve"/>
      <point x="935" y="674" type="line"/>
      <point x="935" y="445"/>
      <point x="702" y="186"/>
      <point x="542" y="186" type="qcurve" smooth="yes"/>
      <point x="452" y="186"/>
      <point x="344" y="298"/>
      <point x="344" y="390" type="qcurve" smooth="yes"/>
      <point x="344" y="482"/>
      <point x="456" y="613"/>
      <point x="568" y="686" type="qcurve" smooth="yes"/>
      <point x="785" y="800" type="line" smooth="yes"/>
      <point x="904" y="866"/>
      <point x="1022" y="1028"/>
      <point x="1022" y="1150" type="qcurve" smooth="yes"/>
      <point x="1022" y="1301"/>
      <point x="786" y="1486"/>
      <point x="593" y="1486" type="qcurve" smooth="yes"/>
      <point x="401" y="1486"/>
      <point x="150" y="1291"/>
      <point x="150" y="1130" type="qcurve" smooth="yes"/>
      <point x="150" y="1030"/>
      <point x="260" y="849"/>
      <point x="386" y="709" type="qcurve" smooth="yes"/>
      <point x="978" y="0" type="line"/>
      <point x="1321" y="0" type="line"/>
      <point x="597" y="855" type="line" smooth="yes"/>
      <point x="519" y="959"/>
      <point x="457" y="1069"/>
      <point x="457" y="1130" type="qcurve" smooth="yes"/>
      <point x="457" y="1198"/>
      <point x="528" y="1280"/>
      <point x="593" y="1280" type="qcurve" smooth="yes"/>
      <point x="660" y="1280"/>
      <point x="725" y="1209"/>
      <point x="725" y="1140" type="qcurve" smooth="yes"/>
      <point x="725" y="1086"/>
      <point x="683" y="1009"/>
      <point x="617" y="966" type="qcurve" smooth="yes"/>
      <point x="400" y="851" type="line" smooth="yes"/>
      <point x="251" y="760"/>
      <point x="30" y="546"/>
    </contour>
  </outline>
</glyph>
<glyph name="one" format="1">
  <advance width="1138"/>
  <unicode hex="0031"/>
  <outline>
    <contour>
      <point x="483" y="0" type="line"/>
      <point x="799" y="0" type="line"/>
      <point x="799" y="1476" type="line"/>
      <point x="647" y="1476" type="line"/>
      <point x="185" y="1291" type="line"/>
      <point x="185" y="1055" type="line"/>
      <point x="483" y="1174" type="line"/>
    </contour>
  </outline>
</glyph>
<glyph name="three" format="1">
  <advance width="1138"/>
  <unicode hex="0033"/>
  <outline>
    <contour>
      <point x="1" y="400" type="line" smooth="yes"/>
      <point x="1" y="211"/>
      <point x="308" y="-30"/>
      <point x="549" y="-30" type="qcurve" smooth="yes"/>
      <point x="785" y="-30"/>
      <point x="1095" y="205"/>
      <point x="1095" y="411" type="qcurve" smooth="yes"/>
      <point x="1095" y="546"/>
      <point x="952" y="728"/>
      <point x="832" y="762" type="qcurve"/>
      <point x="832" y="766" type="line"/>
      <point x="946" y="819"/>
      <point x="1051" y="993"/>
      <point x="1051" y="1090" type="qcurve" smooth="yes"/>
      <point x="1051" y="1265"/>
      <point x="769" y="1486"/>
      <point x="549" y="1486" type="qcurve" smooth="yes"/>
      <point x="326" y="1486"/>
      <point x="36" y="1249"/>
      <point x="36" y="1080" type="qcurve" smooth="yes"/>
      <point x="36" y="1070" type="line"/>
      <point x="351" y="1070" type="line"/>
      <point x="351" y="1080" type="line" smooth="yes"/>
      <point x="351" y="1173"/>
      <point x="462" y="1272"/>
      <point x="549" y="1272" type="qcurve" smooth="yes"/>
      <point x="634" y="1272"/>
      <point x="735" y="1175"/>
      <point x="735" y="1075" type="qcurve" smooth="yes"/>
      <point x="735" y="975"/>
      <point x="616" y="863"/>
      <point x="507" y="863" type="qcurve" smooth="yes"/>
      <point x="341" y="863" type="line"/>
      <point x="341" y="651" type="line"/>
      <point x="515" y="651" type="line" smooth="yes"/>
      <point x="636" y="651"/>
      <point x="778" y="535"/>
      <point x="778" y="420" type="qcurve" smooth="yes"/>
      <point x="778" y="299"/>
      <point x="653" y="184"/>
      <point x="549" y="184" type="qcurve" smooth="yes"/>
      <point x="444" y="184"/>
      <point x="316" y="297"/>
      <point x="316" y="400" type="qcurve" smooth="yes"/>
      <point x="316" y="410" type="line"/>
      <point x="1" y="410" type="line"/>
    </contour>
  </outline>
</glyph>
<glyph name="four" format="2">
  <advance width="1298"/>
  <unicode hex="0034"/>
  <outline>
    <contour>
      <point x="590" y="0" type="line"/>
      <point x="1153" y="0" type="line"/>
      <point x="1153" y="1456" type="line"/>
      <point x="589" y="1456" type="line"/>
      <point x="4" y="604" type="line"/>
      <point x="4" y="261" type="line"/>
      <point x="1282" y="261" type="line"/>
      <point x="1282" y="610" type="line"/>
      <point x="725" y="610" type="line"/>
      <point x="707" y="590" type="line"/>
      <point x="336" y="590" type="line"/>
      <point x="598" y="971" type="line"/>
      <point x="610" y="971" type="line"/>
      <point x="610" y="450" type="line"/>
      <point x="590" y="398" type="line"/>
    </contour>
  </outline>
</glyph>
<glyph name="eight" format="2">
  <advance width="1298"/>
  <unicode hex="0038"/>
  <outline>
    <contour>
      <point x="22.0" y="383" type="qcurve" smooth="yes"/>
      <point x="22" y="191"/>
      <point x="375" y="-20"/>
      <point x="649" y="-20.0" type="qcurve" smooth="yes"/>
      <point x="923.0" y="-20.0"/>
      <point x="1276" y="176"/>
      <point x="1276.0" y="399" type="qcurve" smooth="yes"/>
      <point x="1276.0" y="549"/>
      <point x="1109" y="720.0"/>
      <point x="1002" y="748.0" type="qcurve"/>
      <point x="1002" y="752.0" type="line"/>
      <point x="1094" y="791.0"/>
      <point x="1224" y="947.0"/>
      <point x="1224.0" y="1088.0" type="qcurve" smooth="yes"/>
      <point x="1224" y="1267"/>
      <point x="895" y="1475.0"/>
      <point x="649" y="1475.0" type="qcurve" smooth="yes"/>
      <point x="403" y="1475.0"/>
      <point x="74" y="1275"/>
      <point x="74.0" y="1090.0" type="qcurve" smooth="yes"/>
      <point x="74" y="916"/>
      <point x="207" y="781"/>
      <point x="301" y="749.0" type="qcurve"/>
      <point x="301" y="745.0" type="line"/>
      <point x="188" y="705.0"/>
      <point x="22.0" y="526"/>
    </contour>
    <contour>
      <point x="546" y="438" type="qcurve" smooth="yes"/>
      <point x="546" y="550"/>
      <point x="592" y="645"/>
      <point x="648.0" y="645" type="qcurve" smooth="yes"/>
      <point x="704.0" y="645.0"/>
      <point x="750" y="550"/>
      <point x="750" y="438" type="qcurve" smooth="yes"/>
      <point x="750" y="330"/>
      <point x="706.0" y="239.0"/>
      <point x="648.0" y="239" type="qcurve" smooth="yes"/>
      <point x="590" y="239"/>
      <point x="546" y="330"/>
    </contour>
    <contour>
      <point x="547" y="1020" type="qcurve" smooth="yes"/>
      <point x="549" y="1129"/>
      <point x="597" y="1215"/>
      <point x="648" y="1215" type="qcurve" smooth="yes"/>
      <point x="699.0" y="1215.0"/>
      <point x="750" y="1128"/>
      <point x="750.0" y="1020.0" type="qcurve" smooth="yes"/>
      <point x="750.0" y="952.0"/>
      <point x="700.0" y="861.0"/>
      <point x="648" y="861" type="qcurve" smooth="yes"/>
      <point x="596" y="861"/>
      <point x="545.0" y="951.0"/>
    </contour>
  </outline>
</glyph>
<glyph name="nine" format="2">
  <advance width="1298"/>
  <unicode hex="0039"/>
  <outline>
    <contour>
      <point x="17.0" y="946.0" type="qcurve" smooth="yes"/>
      <point x="17.0" y="735.0"/>
      <point x="323.0" y="478.0"/>
      <point x="574.0" y="478.0" type="qcurve" smooth="yes"/>
      <point x="792.0" y="478.0"/>
      <point x="1054.0" y="763.0"/>
      <point x="1054.0" y="985.0" type="qcurve"/>
      <point x="751.0" y="985.0" type="line"/>
      <point x="751.0" y="840.0"/>
      <point x="700.0" y="702.0"/>
      <point x="638.0" y="702.0" type="qcurve" smooth="yes"/>
      <point x="580.0" y="702.0"/>
      <point x="543.0" y="816.0"/>
      <point x="543.0" y="965.0" type="qcurve" smooth="yes"/>
      <point x="543.0" y="1104.0"/>
      <point x="584.0" y="1191.0"/>
      <point x="640.0" y="1191.0" type="qcurve" smooth="yes"/>
      <point x="696.0" y="1191.0"/>
      <point x="748.0" y="1071.0"/>
      <point x="748.0" y="927.0" type="qcurve" smooth="yes"/>
      <point x="748.0" y="719.0" type="line" smooth="yes"/>
      <point x="748.0" y="482.0"/>
      <point x="554.0" y="305.0"/>
      <point x="352.0" y="296.0" type="qcurve" smooth="yes"/>
      <point x="191.0" y="288.0" type="line"/>
      <point x="191.0" y="-32.0" type="line"/>
      <point x="352.0" y="-32.0" type="line" smooth="yes"/>
      <point x="736.0" y="-32.0"/>
      <point x="1272.0" y="395.0"/>
      <point x="1272.0" y="749.0" type="qcurve" smooth="yes"/>
      <point x="1272.0" y="913.0" type="line" smooth="yes"/>
      <point x="1272.0" y="1194.0"/>
      <point x="933.0" y="1474.0"/>
      <point x="630.0" y="1474.0" type="qcurve" smooth="yes"/>
      <point x="354.0" y="1474.0"/>
      <point x="17.0" y="1179.0"/>
    </contour>
  </outline>
</glyph>
<glyph name="colon" format="1">
  <advance width="629"/>
  <unicode hex="003A"/>
  <outline>
    <contour>
      <point x="126" y="143" type="qcurve" smooth="yes"/>
      <point x="126" y="75"/>
      <point x="223" y="-22"/>
      <point x="314" y="-22" type="qcurve" smooth="yes"/>
      <point x="405" y="-22"/>
      <point x="503" y="75"/>
      <point x="503" y="143" type="qcurve" smooth="yes"/>
      <point x="503" y="211"/>
      <point x="405" y="308"/>
      <point x="314" y="308" type="qcurve" smooth="yes"/>
      <point x="223" y="308"/>
      <point x="126" y="211"/>
    </contour>
    <contour>
      <point x="126" y="937" type="qcurve" smooth="yes"/>
      <point x="126" y="868"/>
      <point x="223" y="772"/>
      <point x="314" y="772" type="qcurve" smooth="yes"/>
      <point x="405" y="772"/>
      <point x="503" y="868"/>
      <point x="503" y="937" type="qcurve" smooth="yes"/>
      <point x="503" y="1005"/>
      <point x="405" y="1102"/>
      <point x="314" y="1102" type="qcurve" smooth="yes"/>
      <point x="223" y="1102"/>
      <point x="126" y="1005"/>
    </contour>
  </outline>
</glyph>
<glyph name="less" format="2">
  <advance width="968"/>
  <unicode hex="003C"/>
  <outline>
    <contour>
      <point x="868" y="173" type="line"/>
      <point x="868" y="447" type="line"/>
      <point x="427" y="674" type="line"/>
      <point x="868" y="901" type="line"/>
      <point x="868" y="1175" type="line"/>
      <point x="92" y="778" type="line"/>
      <point x="92" y="571" type="line"/>
    </contour>
  </outline>
</glyph>
<glyph name="question" format="2">
  <advance width="1126"/>
  <unicode hex="003F"/>
  <outline>
    <contour>
      <point x="326" y="133" type="qcurve" smooth="yes"/>
      <point x="326" y="69"/>
      <point x="423" y="-22"/>
      <point x="514" y="-22" type="qcurve" smooth="yes"/>
      <point x="605" y="-22"/>
      <point x="702" y="69"/>
      <point x="702" y="133" type="qcurve" smooth="yes"/>
      <point x="702" y="197"/>
      <point x="605" y="288"/>
      <point x="514" y="288" type="qcurve" smooth="yes"/>
      <point x="423" y="288"/>
      <point x="326" y="197"/>
    </contour>
    <contour>
      <point x="58" y="1058" type="line"/>
      <point x="373" y="1058" type="line"/>
      <point x="373" y="1088" type="line" smooth="yes"/>
      <point x="373" y="1175"/>
      <point x="462" y="1265"/>
      <point x="547" y="1265" type="qcurve" smooth="yes"/>
      <point x="631" y="1265"/>
      <point x="713" y="1170"/>
      <point x="713" y="1075" type="qcurve" smooth="yes"/>
      <point x="713" y="985"/>
      <point x="640" y="875"/>
      <point x="542" y="805" type="qcurve" smooth="yes"/>
      <point x="435" y="719"/>
      <point x="352" y="562"/>
      <point x="352" y="440" type="qcurve" smooth="yes"/>
      <point x="352" y="430" type="line"/>
      <point x="667" y="430" type="line"/>
      <point x="667" y="440" type="line" smooth="yes"/>
      <point x="667" y="503"/>
      <point x="718" y="623"/>
      <point x="811" y="684" type="qcurve" smooth="yes"/>
      <point x="908" y="746"/>
      <point x="1028" y="940"/>
      <point x="1028" y="1075" type="qcurve" smooth="yes"/>
      <point x="1028" y="1262"/>
      <point x="773" y="1476"/>
      <point x="547" y="1476" type="qcurve" smooth="yes"/>
      <point x="320" y="1476"/>
      <point x="58" y="1272"/>
      <point x="58" y="1088" type="qcurve" smooth="yes"/>
    </contour>
  </outline>
</glyph>
<glyph name="A" format="2">
  <advance width="1413"/>
  <unicode hex="0041"/>
  <outline>
    <contour>
      <point x="-60" y="0" type="line"/>
      <point x="453" y="0" type="line"/>
      <point x="603" y="591" type="line" smooth="yes"/>
      <point x="633" y="711"/>
      <point x="663" y="931"/>
      <point x="669" y="964" type="qcurve"/>
      <point x="671" y="964" type="line"/>
      <point x="677" y="931"/>
      <point x="706" y="712"/>
      <point x="737" y="585" type="qcurve" smooth="yes"/>
      <point x="888" y="0" type="line"/>
      <point x="1473" y="0" type="line"/>
      <point x="993" y="1456" type="line"/>
      <point x="390" y="1456" type="line"/>
    </contour>
    <contour>
      <point x="261" y="195" type="line"/>
      <point x="1091" y="195" type="line"/>
      <point x="1012" y="489" type="line"/>
      <point x="339" y="489" type="line"/>
    </contour>
  </outline>
</glyph>
<glyph name="C" format="1">
  <advance width="1312.0"/>
  <unicode hex="0043"/>
  <outline>
    <contour>
      <point x="65" y="682" type="line" smooth="yes"/>
      <point x="65" y="336"/>
      <point x="426" y="-30"/>
      <point x="698" y="-30" type="qcurve" smooth="yes"/>
      <point x="972" y="-30"/>
      <point x="1282" y="261"/>
      <point x="1282" y="481" type="qcurve" smooth="yes"/>
      <point x="1282" y="491" type="line"/>
      <point x="966" y="491" type="line"/>
      <point x="966" y="481" type="line" smooth="yes"/>
      <point x="966" y="367"/>
      <point x="830" y="202"/>
      <point x="704" y="202" type="qcurve"/>
      <point x="559" y="202"/>
      <point x="382" y="448"/>
      <point x="382" y="682" type="qcurve" smooth="yes"/>
      <point x="382" y="774" type="line" smooth="yes"/>
      <point x="382" y="1008"/>
      <point x="559" y="1254"/>
      <point x="704" y="1254" type="qcurve"/>
      <point x="830" y="1254"/>
      <point x="966" y="1089"/>
      <point x="966" y="975" type="qcurve" smooth="yes"/>
      <point x="966" y="965" type="line"/>
      <point x="1282" y="965" type="line"/>
      <point x="1282" y="975" type="line" smooth="yes"/>
      <point x="1282" y="1196"/>
      <point x="972" y="1486"/>
      <point x="698" y="1486" type="qcurve" smooth="yes"/>
      <point x="426" y="1486"/>
      <point x="65" y="1120"/>
      <point x="65" y="774" type="qcurve" smooth="yes"/>
    </contour>
    <contour>
      <point x="678" y="0" type="move" name="bottom"/>
    </contour>
  </outline>
</glyph>
<glyph name="D" format="2">
  <advance width="1435"/>
  <unicode hex="0044"/>
  <outline>
    <contour>
      <point x="70" y="0" type="line"/>
      <point x="739" y="0" type="line" smooth="yes"/>
      <point x="1032" y="0"/>
      <point x="1405" y="370"/>
      <point x="1405" y="682" type="qcurve" smooth="yes"/>
      <point x="1405" y="774" type="line" smooth="yes"/>
      <point x="1405" y="1086"/>
      <point x="1032" y="1456"/>
      <point x="739" y="1456" type="qcurve" smooth="yes"/>
      <point x="70" y="1456" type="line"/>
    </contour>
    <contour>
      <point x="623" y="334" type="line"/>
      <point x="623" y="1112" type="line"/>
      <point x="674" y="1112.0" type="line" smooth="yes"/>
      <point x="746" y="1112"/>
      <point x="811.0" y="974.0"/>
      <point x="811" y="852.0" type="qcurve" smooth="yes"/>
      <point x="811.0" y="596" type="line" smooth="yes"/>
      <point x="811" y="473"/>
      <point x="746.0" y="334.0"/>
      <point x="674.0" y="334" type="qcurve" smooth="yes"/>
    </contour>
  </outline>
</glyph>
<glyph name="E" format="1">
  <advance width="1108.0"/>
  <unicode hex="0045"/>
  <outline>
    <contour>
      <point x="120" y="0" type="line"/>
      <point x="1080" y="0" type="line"/>
      <point x="1080" y="224" type="line"/>
      <point x="429" y="224" type="line"/>
      <point x="429" y="639" type="line"/>
      <point x="978" y="639" type="line"/>
      <point x="978" y="863" type="line"/>
      <point x="429" y="863" type="line"/>
      <point x="429" y="1232" type="line"/>
      <point x="1070" y="1232" type="line"/>
      <point x="1070" y="1456" type="line"/>
      <point x="120" y="1456" type="line"/>
    </contour>
    <contour>
      <point x="603" y="1432" type="move" name="top"/>
    </contour>
  </outline>
</glyph>
<glyph name="F" format="2">
  <advance width="1128"/>
  <unicode hex="0046"/>
  <outline>
    <contour>
      <point x="70" y="0" type="line"/>
      <point x="639" y="0" type="line"/>
      <point x="639" y="502" type="line"/>
      <point x="1064" y="502" type="line"/>
      <point x="1064" y="926" type="line"/>
      <point x="639" y="926" type="line"/>
      <point x="639" y="1032" type="line"/>
      <point x="1118" y="1032" type="line"/>
      <point x="1118" y="1456" type="line"/>
      <point x="70" y="1456" type="line"/>
    </contour>
  </outline>
</glyph>
<glyph name="G" format="1">
  <advance width="1335.0"/>
  <unicode hex="0047"/>
  <outline>
    <contour>
      <point x="65" y="682" type="line" smooth="yes"/>
      <point x="65" y="346"/>
      <point x="422" y="-30"/>
      <point x="723" y="-30" type="qcurve" smooth="yes"/>
      <point x="922" y="-30"/>
      <point x="1197" y="96"/>
      <point x="1275" y="170" type="qcurve"/>
      <point x="1275" y="759" type="line"/>
      <point x="683" y="759" type="line"/>
      <point x="683" y="535" type="line"/>
      <point x="968" y="535" type="line"/>
      <point x="968" y="276" type="line"/>
      <point x="913" y="238"/>
      <point x="802" y="200"/>
      <point x="723" y="200" type="qcurve" smooth="yes"/>
      <point x="561" y="200"/>
      <point x="382" y="457"/>
      <point x="382" y="682" type="qcurve" smooth="yes"/>
      <point x="382" y="774" type="line" smooth="yes"/>
      <point x="382" y="999"/>
      <point x="557" y="1257"/>
      <point x="693" y="1257" type="qcurve" smooth="yes"/>
      <point x="823" y="1257"/>
      <point x="950" y="1107"/>
      <point x="958" y="1025" type="qcurve" smooth="yes"/>
      <point x="959" y="1015" type="line"/>
      <point x="1275" y="1015" type="line"/>
      <point x="1275" y="1025" type="line" smooth="yes"/>
      <point x="1275" y="1212"/>
      <point x="965" y="1486"/>
      <point x="693" y="1486" type="qcurve" smooth="yes"/>
      <point x="424" y="1486"/>
      <point x="65" y="1110"/>
      <point x="65" y="774" type="qcurve" smooth="yes"/>
    </contour>
  </outline>
</glyph>
<glyph name="I" format="1">
  <advance width="559"/>
  <unicode hex="0049"/>
  <outline>
    <contour>
      <point x="125" y="0" type="line"/>
      <point x="434" y="0" type="line"/>
      <point x="434" y="1456" type="line"/>
      <point x="125" y="1456" type="line"/>
    </contour>
    <contour>
      <point x="279" y="1432" type="move" name="top"/>
    </contour>
  </outline>
</glyph>
<glyph name="J" format="2">
  <advance width="1288"/>
  <unicode hex="004A"/>
  <outline>
    <contour>
      <point x="-5" y="455.0" type="line" smooth="yes"/>
      <point x="-5" y="230"/>
      <point x="316" y="-30.0"/>
      <point x="593" y="-30.0" type="qcurve" smooth="yes"/>
      <point x="871" y="-30.0"/>
      <point x="1191" y="245"/>
      <point x="1193" y="480.0" type="qcurve" smooth="yes"/>
      <point x="1193" y="1456.0" type="line"/>
      <point x="603" y="1455" type="line"/>
      <point x="603" y="478" type="line" smooth="yes"/>
      <point x="603" y="408"/>
      <point x="575" y="333"/>
      <point x="539" y="333" type="qcurve" smooth="yes"/>
      <point x="502" y="333"/>
      <point x="475.0" y="400.0"/>
      <point x="475" y="465" type="qcurve" smooth="yes"/>
      <point x="475" y="629" type="line"/>
      <point x="-5" y="619" type="line"/>
    </contour>
  </outline>
</glyph>
<glyph name="L" format="2">
  <advance width="1170"/>
  <unicode hex="004C"/>
  <outline>
    <contour>
      <point x="70" y="0" type="line"/>
      <point x="1143" y="0" type="line"/>
      <point x="1143" y="404" type="line"/>
      <point x="629" y="404" type="line"/>
      <point x="629" y="1456" type="line"/>
      <point x="70" y="1456" type="line"/>
    </contour>
  </outline>
</glyph>
<glyph name="M" format="1">
  <advance width="1630.0"/>
  <unicode hex="004D"/>
  <outline>
    <contour>
      <point x="120" y="0" type="line"/>
      <point x="367" y="0" type="line"/>
      <point x="367" y="920" type="line" smooth="yes"/>
      <point x="367" y="955"/>
      <point x="362" y="1043"/>
      <point x="359" y="1078" type="qcurve"/>
      <point x="369" y="1078" type="line"/>
      <point x="374" y="1043"/>
      <point x="393" y="955"/>
      <point x="404" y="920" type="qcurve" smooth="yes"/>
      <point x="659" y="0" type="line"/>
      <point x="911" y="0" type="line"/>
      <point x="1166" y="920" type="line" smooth="yes"/>
      <point x="1176" y="955"/>
      <point x="1196" y="1043"/>
      <point x="1201" y="1078" type="qcurve"/>
      <point x="1211" y="1078" type="line"/>
      <point x="1208" y="1043"/>
      <point x="1203" y="955"/>
      <point x="1203" y="920" type="qcurve" smooth="yes"/>
      <point x="1203" y="0" type="line"/>
      <point x="1510" y="0" type="line"/>
      <point x="1510" y="1456" type="line"/>
      <point x="1096" y="1456" type="line"/>
      <point x="851" y="518" type="line" smooth="yes"/>
      <point x="842" y="483"/>
      <point x="823" y="415"/>
      <point x="817" y="375" type="qcurve"/>
      <point x="810" y="375" type="line"/>
      <point x="804" y="415"/>
      <point x="785" y="483"/>
      <point x="776" y="518" type="qcurve" smooth="yes"/>
      <point x="529" y="1456" type="line"/>
      <point x="120" y="1456" type="line"/>
    </contour>
  </outline>
</glyph>
<glyph name="N" format="1">
  <advance width="1333.0"/>
  <unicode hex="004E"/>
  <outline>
    <contour>
      <point x="120" y="0" type="line"/>
      <point x="391" y="0" type="line"/>
      <point x="391" y="890" type="line" smooth="yes"/>
      <point x="391" y="925"/>
      <point x="388" y="1000"/>
      <point x="385" y="1035" type="qcurve"/>
      <point x="392" y="1035" type="line"/>
      <point x="402" y="1003"/>
      <point x="427" y="940"/>
      <point x="443" y="910" type="qcurve" smooth="yes"/>
      <point x="846" y="0" type="line"/>
      <point x="1213" y="0" type="line"/>
      <point x="1213" y="1456" type="line"/>
      <point x="942" y="1456" type="line"/>
      <point x="942" y="566" type="line" smooth="yes"/>
      <point x="942" y="531"/>
      <point x="945" y="456"/>
      <point x="948" y="421" type="qcurve"/>
      <point x="940" y="421" type="line"/>
      <point x="930" y="453"/>
      <point x="903" y="515"/>
      <point x="889" y="546" type="qcurve" smooth="yes"/>
      <point x="487" y="1456" type="line"/>
      <point x="120" y="1456" type="line"/>
    </contour>
    <contour>
      <point x="693" y="1432" type="move" name="top"/>
    </contour>
  </outline>
</glyph>
<glyph name="O" format="2">
  <advance width="1486"/>
  <unicode hex="004F"/>
  <outline>
    <contour>
      <point x="30.0" y="701.0" type="line" smooth="yes"/>
      <point x="30" y="346"/>
      <point x="430" y="-30"/>
      <point x="742" y="-30" type="qcurve" smooth="yes"/>
      <point x="1055" y="-30"/>
      <point x="1456" y="346"/>
      <point x="1456.0" y="701.0" type="qcurve" smooth="yes"/>
      <point x="1456.0" y="755.0" type="line" smooth="yes"/>
      <point x="1456" y="1110"/>
      <point x="1055" y="1486"/>
      <point x="742" y="1486" type="qcurve" smooth="yes"/>
      <point x="430" y="1486"/>
      <point x="30" y="1110"/>
      <point x="30.0" y="755.0" type="qcurve" smooth="yes"/>
    </contour>
    <contour>
      <point x="643" y="547" type="qcurve" smooth="yes"/>
      <point x="643" y="902" type="line" smooth="yes"/>
      <point x="643" y="1119"/>
      <point x="696" y="1209"/>
      <point x="743" y="1209" type="qcurve" smooth="yes"/>
      <point x="790" y="1209"/>
      <point x="843" y="1119"/>
      <point x="843" y="902" type="qcurve" smooth="yes"/>
      <point x="843" y="547" type="line" smooth="yes"/>
      <point x="843" y="353"/>
      <point x="790" y="247"/>
      <point x="743" y="247" type="qcurve" smooth="yes"/>
      <point x="696" y="247"/>
      <point x="643" y="353"/>
    </contour>
  </outline>
</glyph>
<glyph name="Q" format="1">
  <advance width="1396.0"/>
  <unicode hex="0051"/>
  <outline>
    <contour>
      <point x="65" y="682" type="line" smooth="yes"/>
      <point x="65" y="346.0"/>
      <point x="415.9127105666156" y="-30.0"/>
      <point x="698" y="-30" type="qcurve" smooth="yes"/>
      <point x="980.0872894333844" y="-30.0"/>
      <point x="1331" y="346.0"/>
      <point x="1331" y="682" type="qcurve" smooth="yes"/>
      <point x="1331" y="774" type="line" smooth="yes"/>
      <point x="1331" y="1110.0"/>
      <point x="980.0872894333844" y="1486.0"/>
      <point x="698" y="1486" type="qcurve" smooth="yes"/>
      <point x="415.9127105666156" y="1486.0"/>
      <point x="65" y="1110.0"/>
      <point x="65" y="774" type="qcurve" smooth="yes"/>
    </contour>
    <contour>
      <point x="382" y="682" type="qcurve" smooth="yes"/>
      <point x="382" y="774" type="line" smooth="yes"/>
      <point x="382" y="998.3265306122449"/>
      <point x="550.3452380952381" y="1254.0"/>
      <point x="698" y="1254" type="qcurve" smooth="yes"/>
      <point x="845.6547619047619" y="1254.0"/>
      <point x="1014" y="998.0"/>
      <point x="1014" y="774" type="qcurve" smooth="yes"/>
      <point x="1014" y="682" type="line" smooth="yes"/>
      <point x="1014" y="458.0"/>
      <point x="845.6547619047619" y="202.0"/>
      <point x="698" y="202" type="qcurve" smooth="yes"/>
      <point x="550.3452380952381" y="202.0"/>
      <point x="382" y="457.67346938775506"/>
    </contour>
    <contour>
      <point x="1098" y="-265" type="line"/>
      <point x="1311" y="-80" type="line"/>
      <point x="948" y="195" type="line"/>
      <point x="740" y="15" type="line"/>
    </contour>
  </outline>
</glyph>
<glyph name="R" format="1">
  <advance width="1229"/>
  <unicode hex="0052"/>
  <outline>
    <contour>
      <point x="120" y="0" type="line"/>
      <point x="429" y="0" type="line"/>
      <point x="429" y="540" type="line"/>
      <point x="621" y="540" type="line" smooth="yes"/>
      <point x="877.4144144144144" y="540"/>
      <point x="1156.0" y="794.0"/>
      <point x="1156" y="1001" type="qcurve" smooth="yes"/>
      <point x="1156.0" y="1208.0"/>
      <point x="877.4144144144144" y="1456"/>
      <point x="621" y="1456" type="qcurve" smooth="yes"/>
      <point x="120" y="1456" type="line"/>
    </contour>
    <contour>
      <point x="429" y="763" type="line"/>
      <point x="429" y="1233" type="line"/>
      <point x="621" y="1233" type="line" smooth="yes"/>
      <point x="747.780487804878" y="1233"/>
      <point x="847.0" y="1100.0"/>
      <point x="847" y="1001" type="qcurve" smooth="yes"/>
      <point x="847.0" y="902.0"/>
      <point x="747.780487804878" y="763"/>
      <point x="621" y="763" type="qcurve" smooth="yes"/>
    </contour>
    <contour>
      <point x="836" y="0" type="line"/>
      <point x="1184" y="0" type="line"/>
      <point x="865" y="672" type="line"/>
      <point x="525" y="672" type="line"/>
    </contour>
  </outline>
</glyph>
<glyph name="S" format="2">
  <advance width="1389"/>
  <unicode hex="0053"/>
  <outline>
    <contour>
      <point x="21" y="373" type="line" smooth="yes"/>
      <point x="23" y="168"/>
      <point x="361" y="-30"/>
      <point x="684" y="-30.0" type="qcurve" smooth="yes"/>
      <point x="1042" y="-30"/>
      <point x="1373" y="236"/>
      <point x="1373" y="460" type="qcurve" smooth="yes"/>
      <point x="1373" y="649"/>
      <point x="1147" y="856"/>
      <point x="925" y="924" type="qcurve" smooth="yes"/>
      <point x="700" y="993"/>
      <point x="601" y="1056"/>
      <point x="601" y="1107" type="qcurve" smooth="yes"/>
      <point x="601" y="1154"/>
      <point x="637" y="1207"/>
      <point x="684" y="1207" type="qcurve" smooth="yes"/>
      <point x="731" y="1207"/>
      <point x="771" y="1153"/>
      <point x="771" y="1089" type="qcurve"/>
      <point x="771" y="999" type="line"/>
      <point x="1289" y="999" type="line"/>
      <point x="1289" y="1089" type="line" smooth="yes"/>
      <point x="1289" y="1272"/>
      <point x="991" y="1486"/>
      <point x="673" y="1486.0" type="qcurve" smooth="yes"/>
      <point x="404" y="1486"/>
      <point x="43" y="1257"/>
      <point x="43" y="1044" type="qcurve" smooth="yes"/>
      <point x="43" y="837"/>
      <point x="269" y="625"/>
      <point x="485" y="555" type="qcurve" smooth="yes"/>
      <point x="708" y="483"/>
      <point x="796" y="404"/>
      <point x="796" y="345" type="qcurve" smooth="yes"/>
      <point x="796" y="290"/>
      <point x="757" y="230"/>
      <point x="704" y="230" type="qcurve" smooth="yes"/>
      <point x="645" y="230"/>
      <point x="591" y="309"/>
      <point x="589" y="403" type="qcurve" smooth="yes"/>
      <point x="588" y="486" type="line"/>
      <point x="20" y="486" type="line"/>
    </contour>
  </outline>
</glyph>
<glyph name="U" format="2">
  <advance width="1494"/>
  <unicode hex="0055"/>
  <outline>
    <contour>
      <point x="58" y="528" type="line" smooth="yes"/>
      <point x="58" y="229"/>
      <point x="453" y="-30"/>
      <point x="747" y="-30" type="qcurve" smooth="yes"/>
      <point x="1040" y="-30"/>
      <point x="1436" y="229"/>
      <point x="1436" y="528" type="qcurve" smooth="yes"/>
      <point x="1436" y="1456" type="line"/>
      <point x="867" y="1456" type="line"/>
      <point x="867" y="417" type="line" smooth="yes"/>
      <point x="867" y="339"/>
      <point x="825" y="262"/>
      <point x="788" y="262" type="qcurve" smooth="yes"/>
      <point x="751" y="262"/>
      <point x="709" y="339"/>
      <point x="709" y="417" type="qcurve" smooth="yes"/>
      <point x="709" y="1456" type="line"/>
      <point x="58" y="1456" type="line"/>
    </contour>
  </outline>
</glyph>
<glyph name="V" format="2">
  <advance width="1478"/>
  <unicode hex="0056"/>
  <outline>
    <contour>
      <point x="-10" y="1456" type="line"/>
      <point x="404" y="-5" type="line"/>
      <point x="1034" y="-5" type="line"/>
      <point x="1488" y="1456" type="line"/>
      <point x="923" y="1456" type="line"/>
      <point x="757" y="680" type="line" smooth="yes"/>
      <point x="750" y="647"/>
      <point x="740" y="592"/>
      <point x="738" y="570" type="qcurve"/>
      <point x="735" y="570" type="line"/>
      <point x="732" y="592"/>
      <point x="720" y="646"/>
      <point x="713" y="680" type="qcurve" smooth="yes"/>
      <point x="546" y="1456" type="line"/>
    </contour>
  </outline>
</glyph>
<glyph name="W" format="1">
  <advance width="1787"/>
  <unicode hex="0057"/>
  <outline>
    <contour>
      <point x="305" y="-5" type="line"/>
      <point x="667" y="-5" type="line"/>
      <point x="874" y="1000" type="line" smooth="yes"/>
      <point x="882" y="1037"/>
      <point x="888" y="1108"/>
      <point x="891" y="1143" type="qcurve"/>
      <point x="895" y="1143" type="line"/>
      <point x="898" y="1108"/>
      <point x="904" y="1037"/>
      <point x="912" y="1000" type="qcurve" smooth="yes"/>
      <point x="1119" y="-5" type="line"/>
      <point x="1482" y="-5" type="line"/>
      <point x="1767" y="1456" type="line"/>
      <point x="1508" y="1456" type="line"/>
      <point x="1346" y="455" type="line" smooth="yes"/>
      <point x="1340" y="418"/>
      <point x="1334" y="342"/>
      <point x="1331" y="306" type="qcurve"/>
      <point x="1326" y="306" type="line"/>
      <point x="1324" y="342"/>
      <point x="1320" y="418"/>
      <point x="1312" y="455" type="qcurve" smooth="yes"/>
      <point x="1106" y="1456" type="line"/>
      <point x="733" y="1456" type="line"/>
      <point x="534" y="454" type="line" smooth="yes"/>
      <point x="527" y="417"/>
      <point x="522" y="342"/>
      <point x="520" y="305" type="qcurve"/>
      <point x="515" y="305" type="line"/>
      <point x="512" y="342"/>
      <point x="506" y="417"/>
      <point x="500" y="454" type="qcurve" smooth="yes"/>
      <point x="330" y="1456" type="line"/>
      <point x="20" y="1456" type="line"/>
    </contour>
  </outline>
</glyph>
<glyph name="bracketleft" format="1">
  <advance width="665"/>
  <unicode hex="005B"/>
  <outline>
    <contour>
      <point x="94" y="-310" type="line"/>
      <point x="625" y="-310" type="line"/>
      <point x="625" y="-100" type="line"/>
      <point x="394" y="-100" type="line"/>
      <point x="394" y="1246" type="line"/>
      <point x="625" y="1246" type="line"/>
      <point x="625" y="1456" type="line"/>
      <point x="94" y="1456" type="line"/>
    </contour>
  </outline>
</glyph>
<glyph name="asciicircum" format="2">
  <advance width="1078"/>
  <unicode hex="005E"/>
  <outline>
    <contour>
      <point x="-25" y="720" type="line"/>
      <point x="323" y="720" type="line"/>
      <point x="539" y="1193" type="line"/>
      <point x="755" y="720" type="line"/>
      <point x="1103" y="720" type="line"/>
      <point x="698" y="1456" type="line"/>
      <point x="380" y="1456" type="line"/>
    </contour>
  </outline>
</glyph>
<glyph name="grave" format="1">
  <advance width="886"/>
  <unicode hex="0060"/>
  <outline>
    <contour>
      <point x="317" y="1156" type="line"/>
      <point x="602" y="1156" type="line"/>
      <point x="411" y="1456" type="line"/>
      <point x="78" y="1456" type="line"/>
    </contour>
    <contour>
      <point x="452" y="1052" type="move" name="_top"/>
    </contour>
  </outline>
</glyph>
<glyph name="a" format="2">
  <advance width="1245"/>
  <unicode hex="0061"/>
  <outline>
    <contour>
      <point x="21" y="269.0" type="qcurve"/>
      <point x="21" y="134.0"/>
      <point x="234" y="-17.0"/>
      <point x="388" y="-17.0" type="qcurve" smooth="yes"/>
      <point x="494" y="-17.0"/>
      <point x="659" y="54.0"/>
      <point x="703" y="117.0" type="qcurve"/>
      <point x="706" y="84.0"/>
      <point x="721" y="21.0"/>
      <point x="730" y="0.0" type="qcurve"/>
      <point x="1193" y="0" type="line"/>
      <point x="1193" y="14" type="line"/>
      <point x="1180" y="52"/>
      <point x="1164" y="152"/>
      <point x="1164" y="209" type="qcurve" smooth="yes"/>
      <point x="1164.0" y="596" type="line" smooth="yes"/>
      <point x="1164.0" y="816"/>
      <point x="843" y="975.0"/>
      <point x="598" y="975.0" type="qcurve" smooth="yes"/>
      <point x="347" y="975"/>
      <point x="83" y="780.0"/>
      <point x="83.0" y="626" type="qcurve" smooth="yes"/>
      <point x="83" y="612.0" type="line"/>
      <point x="513" y="612" type="line"/>
      <point x="513" y="646" type="line" smooth="yes"/>
      <point x="513.0" y="694.0"/>
      <point x="555" y="756"/>
      <point x="605" y="756" type="qcurve" smooth="yes"/>
      <point x="654" y="756"/>
      <point x="695.0" y="696.0"/>
      <point x="695" y="640" type="qcurve" smooth="yes"/>
      <point x="695" y="594" type="line"/>
      <point x="593" y="594" type="line" smooth="yes"/>
      <point x="345" y="594"/>
      <point x="21" y="426.0"/>
    </contour>
    <contour>
      <point x="467" y="284" type="qcurve" smooth="yes"/>
      <point x="467" y="346"/>
      <point x="532" y="419"/>
      <point x="595" y="419" type="qcurve" smooth="yes"/>
      <point x="687" y="419" type="line"/>
      <point x="687" y="323" type="line"/>
      <point x="687" y="271"/>
      <point x="612" y="180"/>
      <point x="558" y="180.0" type="qcurve" smooth="yes"/>
      <point x="517.0" y="180.0"/>
      <point x="467" y="235"/>
    </contour>
  </outline>
</glyph>
<glyph name="c" format="1">
  <advance width="969.0"/>
  <unicode hex="0063"/>
  <outline>
    <contour>
      <point x="39" y="455" type="line" smooth="yes"/>
      <point x="39" y="243"/>
      <point x="290" y="-26"/>
      <point x="510" y="-26" type="qcurve" smooth="yes"/>
      <point x="719" y="-26"/>
      <point x="937" y="184"/>
      <point x="937" y="315" type="qcurve" smooth="yes"/>
      <point x="937" y="319" type="line"/>
      <point x="657" y="319" type="line"/>
      <point x="657" y="315" type="line" smooth="yes"/>
      <point x="657" y="259"/>
      <point x="588" y="173"/>
      <point x="510" y="173" type="qcurve" smooth="yes"/>
      <point x="416" y="173"/>
      <point x="327" y="336"/>
      <point x="327" y="455" type="qcurve" smooth="yes"/>
      <point x="327" y="483" type="line" smooth="yes"/>
      <point x="327" y="602"/>
      <point x="416" y="766"/>
      <point x="510" y="766" type="qcurve" smooth="yes"/>
      <point x="588" y="766"/>
      <point x="657" y="680"/>
      <point x="657" y="624" type="qcurve" smooth="yes"/>
      <point x="657" y="619" type="line"/>
      <point x="937" y="619" type="line"/>
      <point x="937" y="624" type="line" smooth="yes"/>
      <point x="937" y="754"/>
      <point x="719" y="965"/>
      <point x="510" y="965" type="qcurve" smooth="yes"/>
      <point x="290" y="965"/>
      <point x="39" y="695"/>
      <point x="39" y="483" type="qcurve" smooth="yes"/>
    </contour>
    <contour>
      <point x="520.0" y="0.0" type="move" name="bottom"/>
    </contour>
  </outline>
</glyph>
<glyph name="f" format="2">
  <advance width="779"/>
  <unicode hex="0066"/>
  <outline>
    <contour>
      <point x="125" y="0" type="line"/>
      <point x="630" y="0" type="line"/>
      <point x="630" y="841" type="line"/>
      <point x="606" y="860" type="line"/>
      <point x="606" y="1075" type="line" smooth="yes"/>
      <point x="606.0" y="1133"/>
      <point x="665" y="1177"/>
      <point x="705" y="1177.0" type="qcurve" smooth="yes"/>
      <point x="727" y="1177"/>
      <point x="781" y="1172"/>
      <point x="801" y="1168" type="qcurve"/>
      <point x="809" y="1464" type="line"/>
      <point x="768" y="1470"/>
      <point x="656" y="1478"/>
      <point x="582" y="1478" type="qcurve" smooth="yes"/>
      <point x="381" y="1478"/>
      <point x="125" y="1268.0"/>
      <point x="125" y="1095" type="qcurve" smooth="yes"/>
    </contour>
    <contour>
      <point x="16" y="644" type="line"/>
      <point x="778" y="644" type="line"/>
      <point x="778" y="939" type="line"/>
      <point x="382" y="929" type="line"/>
      <point x="347" y="939" type="line"/>
      <point x="16" y="939" type="line"/>
    </contour>
  </outline>
</glyph>
<glyph name="i" format="1">
  <advance width="447"/>
  <unicode hex="0069"/>
  <outline>
    <contour>
      <point x="83" y="0" type="line"/>
      <point x="364" y="0" type="line"/>
      <point x="364" y="939" type="line"/>
      <point x="83" y="939" type="line"/>
    </contour>
    <contour>
      <point x="61" y="1195" type="qcurve" smooth="yes"/>
      <point x="61.0" y="1130.7142857142858"/>
      <point x="146.22875816993462" y="1045.0"/>
      <point x="224" y="1045" type="qcurve" smooth="yes"/>
      <point x="301.8026315789474" y="1045.0"/>
      <point x="386.0" y="1130.7142857142858"/>
      <point x="386" y="1195" type="qcurve" smooth="yes"/>
      <point x="386.0" y="1258.2142857142858"/>
      <point x="302.0" y="1345.0"/>
      <point x="224" y="1345" type="qcurve" smooth="yes"/>
      <point x="146.0" y="1345.0"/>
      <point x="61.0" y="1259.2857142857142"/>
    </contour>
  </outline>
</glyph>
<glyph name="j" format="1">
  <advance width="447"/>
  <unicode hex="006A"/>
  <outline>
    <contour>
      <point x="-87" y="-357" type="line"/>
      <point x="-66" y="-365"/>
      <point x="17" y="-379"/>
      <point x="50" y="-379" type="qcurve" smooth="yes"/>
      <point x="204.93421052631578" y="-379.0"/>
      <point x="364" y="-235.0"/>
      <point x="364" y="-78" type="qcurve" smooth="yes"/>
      <point x="364" y="939" type="line"/>
      <point x="83" y="939" type="line"/>
      <point x="83" y="-68" type="line" smooth="yes"/>
      <point x="83" y="-126.0"/>
      <point x="43.294117647058826" y="-178.0"/>
      <point x="8" y="-178" type="qcurve" smooth="yes"/>
      <point x="-15" y="-178"/>
      <point x="-71" y="-166"/>
      <point x="-87" y="-161" type="qcurve"/>
    </contour>
    <contour>
      <point x="61" y="1225" type="qcurve" smooth="yes"/>
      <point x="61" y="1161"/>
      <point x="146" y="1075"/>
      <point x="224" y="1075" type="qcurve" smooth="yes"/>
      <point x="302" y="1075"/>
      <point x="386" y="1161"/>
      <point x="386" y="1225" type="qcurve" smooth="yes"/>
      <point x="386" y="1288"/>
      <point x="302" y="1375"/>
      <point x="224" y="1375" type="qcurve" smooth="yes"/>
      <point x="146" y="1375"/>
      <point x="61" y="1288"/>
    </contour>
  </outline>
</glyph>
<glyph name="k" format="1">
  <advance width="899.0"/>
  <unicode hex="006B"/>
  <outline>
    <contour>
      <point x="75" y="0" type="line"/>
      <point x="356" y="0" type="line"/>
      <point x="356" y="275" type="line"/>
      <point x="902" y="939" type="line"/>
      <point x="590" y="939" type="line"/>
      <point x="356" y="627" type="line"/>
      <point x="356" y="1457" type="line"/>
      <point x="75" y="1457" type="line"/>
    </contour>
    <contour>
      <point x="618" y="0" type="line"/>
      <point x="937" y="0" type="line"/>
      <point x="532" y="627" type="line"/>
      <point x="349" y="438" type="line"/>
    </contour>
  </outline>
</glyph>
<glyph name="l" format="2">
  <advance width="630"/>
  <unicode hex="006C"/>
  <outline>
    <contour>
      <point x="60" y="0" type="line"/>
      <point x="570" y="0" type="line"/>
      <point x="570" y="1457" type="line"/>
      <point x="60" y="1457" type="line"/>
    </contour>
  </outline>
</glyph>
<glyph name="n" format="2">
  <advance width="1272"/>
  <unicode hex="006E"/>
  <outline>
    <contour>
      <point x="60" y="0" type="line"/>
      <point x="562" y="0" type="line"/>
      <point x="562" y="635" type="line"/>
      <point x="574" y="657"/>
      <point x="618" y="684"/>
      <point x="648" y="684" type="qcurve" smooth="yes"/>
      <point x="680" y="684"/>
      <point x="715.0" y="651.0"/>
      <point x="715" y="612" type="qcurve" smooth="yes"/>
      <point x="715" y="0" type="line"/>
      <point x="1220" y="0" type="line"/>
      <point x="1220" y="578" type="line" smooth="yes"/>
      <point x="1220" y="782"/>
      <point x="1013" y="956"/>
      <point x="864" y="956" type="qcurve" smooth="yes"/>
      <point x="751" y="956"/>
      <point x="605" y="892"/>
      <point x="558" y="834" type="qcurve"/>
      <point x="553" y="834" type="line"/>
      <point x="547" y="939" type="line"/>
      <point x="60" y="939" type="line"/>
    </contour>
  </outline>
</glyph>
<glyph name="o" format="2">
  <advance width="1289"/>
  <unicode hex="006F"/>
  <outline>
    <contour>
      <point x="39" y="455" type="line" smooth="yes"/>
      <point x="39" y="243"/>
      <point x="367" y="-26"/>
      <point x="645" y="-26" type="qcurve" smooth="yes"/>
      <point x="920" y="-26"/>
      <point x="1250" y="243"/>
      <point x="1250" y="455" type="qcurve" smooth="yes"/>
      <point x="1250" y="483" type="line" smooth="yes"/>
      <point x="1250" y="695"/>
      <point x="920" y="965"/>
      <point x="645" y="965" type="qcurve" smooth="yes"/>
      <point x="367" y="965"/>
      <point x="39" y="695"/>
      <point x="39" y="483" type="qcurve" smooth="yes"/>
    </contour>
    <contour>
      <point x="559" y="583" type="line" smooth="yes"/>
      <point x="559" y="700"/>
      <point x="602" y="761"/>
      <point x="644" y="761" type="qcurve" smooth="yes"/>
      <point x="685" y="761"/>
      <point x="727" y="700"/>
      <point x="727" y="583" type="qcurve" smooth="yes"/>
      <point x="727" y="354" type="line" smooth="yes"/>
      <point x="727" y="238"/>
      <point x="685" y="177"/>
      <point x="644" y="177" type="qcurve" smooth="yes"/>
      <point x="602" y="177"/>
      <point x="559" y="238"/>
      <point x="559" y="354" type="qcurve" smooth="yes"/>
    </contour>
  </outline>
</glyph>
<glyph name="q" format="2">
  <advance width="1301"/>
  <unicode hex="0071"/>
  <outline>
    <contour>
      <point x="39.0" y="455.0" type="line" smooth="yes"/>
      <point x="39.0" y="251.0"/>
      <point x="282" y="-17.0"/>
      <point x="473" y="-17.0" type="qcurve" smooth="yes"/>
      <point x="577" y="-17.0"/>
      <point x="707" y="53.0"/>
      <point x="744" y="105.0" type="qcurve"/>
      <point x="744" y="-416.0" type="line"/>
      <point x="1241" y="-416" type="line"/>
      <point x="1241" y="939" type="line"/>
      <point x="759" y="939.0" type="line"/>
      <point x="752" y="833.0" type="line"/>
      <point x="748" y="833.0" type="line"/>
      <point x="716" y="886.0"/>
      <point x="577" y="956.0"/>
      <point x="467" y="956.0" type="qcurve" smooth="yes"/>
      <point x="282" y="956.0"/>
      <point x="39.0" y="688.0"/>
      <point x="39.0" y="483.0" type="qcurve" smooth="yes"/>
    </contour>
    <contour>
      <point x="558.0" y="326" type="qcurve"/>
      <point x="558.0" y="551" type="line" smooth="yes"/>
      <point x="558.0" y="616"/>
      <point x="604.0" y="703"/>
      <point x="652.0" y="703" type="qcurve" smooth="yes"/>
      <point x="684.0" y="703"/>
      <point x="730.0" y="662"/>
      <point x="739.0" y="635" type="qcurve"/>
      <point x="739.0" y="258" type="line"/>
      <point x="730.0" y="233"/>
      <point x="684.0" y="204"/>
      <point x="652.0" y="204" type="qcurve" smooth="yes"/>
      <point x="604.0" y="204"/>
      <point x="558.0" y="266"/>
    </contour>
  </outline>
</glyph>
<glyph name="r" format="2">
  <advance width="854"/>
  <unicode hex="0072"/>
  <outline>
    <contour>
      <point x="60" y="0" type="line"/>
      <point x="561" y="0" type="line"/>
      <point x="561" y="513" type="line"/>
      <point x="579" y="559"/>
      <point x="666" y="618"/>
      <point x="727" y="618" type="qcurve" smooth="yes"/>
      <point x="755" y="618"/>
      <point x="810" y="602"/>
      <point x="833" y="586" type="qcurve"/>
      <point x="876" y="927" type="line"/>
      <point x="849" y="945"/>
      <point x="783" y="965"/>
      <point x="733" y="965" type="qcurve" smooth="yes"/>
      <point x="664" y="965"/>
      <point x="552.0" y="884.0"/>
      <point x="541" y="799" type="qcurve"/>
      <point x="530" y="799" type="line"/>
      <point x="527" y="939" type="line"/>
      <point x="60" y="939" type="line"/>
    </contour>
  </outline>
</glyph>
<glyph name="t" format="2">
  <advance width="746"/>
  <unicode hex="0074"/>
  <outline>
    <contour>
      <point x="0" y="644" type="line"/>
      <point x="746" y="644" type="line"/>
      <point x="746" y="939" type="line"/>
      <point x="0" y="939" type="line"/>
    </contour>
    <contour>
      <point x="102" y="350" type="line" smooth="yes"/>
      <point x="102" y="197.0"/>
      <point x="300" y="-21"/>
      <point x="511" y="-21" type="qcurve" smooth="yes"/>
      <point x="638" y="-21"/>
      <point x="721" y="0"/>
      <point x="741" y="10" type="qcurve"/>
      <point x="741" y="306" type="line"/>
      <point x="722" y="298"/>
      <point x="682" y="287"/>
      <point x="662" y="287" type="qcurve" smooth="yes"/>
      <point x="626" y="287"/>
      <point x="593.0" y="330.0"/>
      <point x="593" y="380" type="qcurve" smooth="yes"/>
      <point x="593" y="1202" type="line"/>
      <point x="112" y="1202" type="line"/>
      <point x="112" y="864" type="line"/>
      <point x="102" y="838" type="line"/>
    </contour>
  </outline>
</glyph>
<glyph name="u" format="1">
  <advance width="1005"/>
  <unicode hex="0075"/>
  <outline>
    <contour>
      <point x="67" y="361" type="line" smooth="yes"/>
      <point x="67" y="157.0"/>
      <point x="249.39634146341461" y="-17.0"/>
      <point x="405" y="-17" type="qcurve" smooth="yes"/>
      <point x="480.9140625" y="-17.0"/>
      <point x="609.5445285319244" y="45.76493293770331"/>
      <point x="651" y="104" type="qcurve"/>
      <point x="656" y="104" type="line"/>
      <point x="663" y="0" type="line"/>
      <point x="930" y="0" type="line"/>
      <point x="930" y="939" type="line"/>
      <point x="649" y="939" type="line"/>
      <point x="649" y="305" type="line"/>
      <point x="625.4632691766692" y="251.82442295469693"/>
      <point x="538.0" y="188.0"/>
      <point x="480" y="188" type="qcurve" smooth="yes"/>
      <point x="417.0" y="188.0"/>
      <point x="348" y="267.6806282722513"/>
      <point x="348" y="359" type="qcurve" smooth="yes"/>
      <point x="348" y="939" type="line"/>
      <point x="67" y="939" type="line"/>
    </contour>
    <contour>
      <point x="499" y="939" type="move" name="top"/>
    </contour>
  </outline>
</glyph>
<glyph name="v" format="1">
  <advance width="868.0"/>
  <unicode hex="0076"/>
  <outline>
    <contour>
      <point x="-6" y="939" type="line"/>
      <point x="286" y="0" type="line"/>
      <point x="582" y="0" type="line"/>
      <point x="874" y="939" type="line"/>
      <point x="624" y="939" type="line"/>
      <point x="478" y="382" type="line" smooth="yes"/>
      <point x="471" y="354"/>
      <point x="459" y="301"/>
      <point x="456" y="273" type="qcurve"/>
      <point x="452" y="273" type="line"/>
      <point x="449" y="301"/>
      <point x="437" y="354"/>
      <point x="430" y="382" type="qcurve" smooth="yes"/>
      <point x="284" y="939" type="line"/>
    </contour>
  </outline>
</glyph>
<glyph name="y" format="1">
  <advance width="856.0"/>
  <unicode hex="0079"/>
  <outline>
    <contour>
      <point x="71" y="-417" type="line"/>
      <point x="95" y="-426"/>
      <point x="149" y="-434"/>
      <point x="183" y="-434" type="qcurve" smooth="yes"/>
      <point x="312" y="-434"/>
      <point x="506" y="-303"/>
      <point x="552" y="-144" type="qcurve" smooth="yes"/>
      <point x="863" y="939" type="line"/>
      <point x="603" y="939" type="line"/>
      <point x="468" y="422" type="line" smooth="yes"/>
      <point x="461" y="394"/>
      <point x="456" y="361"/>
      <point x="454" y="333" type="qcurve"/>
      <point x="450" y="333" type="line"/>
      <point x="448" y="361"/>
      <point x="444" y="394"/>
      <point x="436" y="422" type="qcurve" smooth="yes"/>
      <point x="282" y="939" type="line"/>
      <point x="-7" y="939" type="line"/>
      <point x="346" y="-56" type="line"/>
      <point x="337" y="-87" type="line" smooth="yes"/>
      <point x="318" y="-157"/>
      <point x="234" y="-232"/>
      <point x="169" y="-232" type="qcurve" smooth="yes"/>
      <point x="144" y="-232"/>
      <point x="92" y="-224"/>
      <point x="71" y="-216" type="qcurve"/>
    </contour>
    <contour>
      <point x="474" y="939" type="move" name="top"/>
    </contour>
  </outline>
</glyph>
<glyph name="z" format="2">
  <advance width="1039"/>
  <unicode hex="007A"/>
  <outline>
    <contour>
      <point x="20" y="0" type="line"/>
      <point x="1039" y="0" type="line"/>
      <point x="1039" y="293" type="line"/>
      <point x="662" y="293" type="line"/>
      <point x="996" y="761" type="line"/>
      <point x="996" y="939" type="line"/>
      <point x="46" y="939" type="line"/>
      <point x="46" y="644" type="line"/>
      <point x="365" y="644" type="line"/>
      <point x="20" y="187" type="line"/>
    </contour>
  </outline>
</glyph>
<glyph name="copyright" format="2">
  <advance width="1546"/>
  <unicode hex="00A9"/>
  <outline>
    <contour>
      <point x="44" y="698" type="qcurve" smooth="yes"/>
      <point x="44" y="364"/>
      <point x="476" y="-82"/>
      <point x="773" y="-82" type="qcurve" smooth="yes"/>
      <point x="1069" y="-82"/>
      <point x="1502" y="364"/>
      <point x="1502" y="698" type="qcurve" smooth="yes"/>
      <point x="1502" y="1032"/>
      <point x="1069" y="1478"/>
      <point x="773" y="1478" type="qcurve" smooth="yes"/>
      <point x="476" y="1478"/>
      <point x="44" y="1032"/>
    </contour>
    <contour>
      <point x="247" y="698" type="qcurve" smooth="yes"/>
      <point x="247" y="951"/>
      <point x="548" y="1305"/>
      <point x="773" y="1305" type="qcurve" smooth="yes"/>
      <point x="997" y="1305"/>
      <point x="1299" y="951"/>
      <point x="1299" y="698" type="qcurve" smooth="yes"/>
      <point x="1299" y="445"/>
      <point x="998" y="91"/>
      <point x="773" y="91" type="qcurve" smooth="yes"/>
      <point x="548" y="91"/>
      <point x="247" y="445"/>
    </contour>
    <contour>
      <point x="418" y="668" type="line" smooth="yes"/>
      <point x="418" y="488"/>
      <point x="621" y="264"/>
      <point x="774" y="264" type="qcurve" smooth="yes"/>
      <point x="917" y="264"/>
      <point x="1104" y="446"/>
      <point x="1104" y="580" type="qcurve" smooth="yes"/>
      <point x="1104" y="590" type="line"/>
      <point x="879" y="590" type="line"/>
      <point x="879" y="580" type="line" smooth="yes"/>
      <point x="879" y="505"/>
      <point x="823" y="424"/>
      <point x="774" y="424" type="qcurve" smooth="yes"/>
      <point x="717" y="424"/>
      <point x="653" y="557"/>
      <point x="653" y="668" type="qcurve" smooth="yes"/>
      <point x="653" y="748" type="line" smooth="yes"/>
      <point x="653" y="859"/>
      <point x="717" y="992"/>
      <point x="774" y="992" type="qcurve" smooth="yes"/>
      <point x="823" y="992"/>
      <point x="879" y="911"/>
      <point x="879" y="836" type="qcurve" smooth="yes"/>
      <point x="879" y="826" type="line"/>
      <point x="1104" y="826" type="line"/>
      <point x="1104" y="836" type="line" smooth="yes"/>
      <point x="1104" y="970"/>
      <point x="917" y="1152"/>
      <point x="774" y="1152" type="qcurve" smooth="yes"/>
      <point x="621" y="1152"/>
      <point x="418" y="928"/>
      <point x="418" y="748" type="qcurve" smooth="yes"/>
    </contour>
  </outline>
</glyph>
<glyph name="twosuperior" format="2">
  <advance width="651"/>
  <unicode hex="00B2"/>
  <outline>
    <contour>
      <point x="633" y="795" type="line"/>
      <point x="235" y="795" type="line"/>
      <point x="410" y="941" type="line" smooth="yes"/>
      <point x="497" y="1020"/>
      <point x="602" y="1151"/>
      <point x="602" y="1231" type="qcurve" smooth="yes"/>
      <point x="602" y="1339"/>
      <point x="450" y="1467"/>
      <point x="316" y="1467" type="qcurve" smooth="yes"/>
      <point x="176" y="1467"/>
      <point x="16" y="1313"/>
      <point x="16" y="1206" type="qcurve"/>
      <point x="174" y="1206" type="line"/>
      <point x="174" y="1263"/>
      <point x="245" y="1339"/>
      <point x="320" y="1339" type="qcurve" smooth="yes"/>
      <point x="379" y="1339"/>
      <point x="443" y="1277"/>
      <point x="443" y="1229" type="qcurve" smooth="yes"/>
      <point x="443" y="1196"/>
      <point x="390" y="1108"/>
      <point x="323" y="1046" type="qcurve" smooth="yes"/>
      <point x="35" y="775" type="line"/>
      <point x="35" y="667" type="line"/>
      <point x="633" y="667" type="line"/>
    </contour>
  </outline>
</glyph>
<glyph name="acute" format="1">
  <advance width="886"/>
  <unicode hex="00B4"/>
  <outline>
    <contour>
      <point x="283" y="1156" type="line"/>
      <point x="570" y="1156" type="line"/>
      <point x="807" y="1456" type="line"/>
      <point x="475" y="1456" type="line"/>
    </contour>
    <contour>
      <point x="451" y="1052" type="move" name="_top"/>
    </contour>
  </outline>
</glyph>
<glyph name="mu.math" format="1">
  <advance width="1169"/>
  <unicode hex="00B5"/>
  <outline>
    <contour>
      <point x="98" y="-416" type="line"/>
      <point x="390" y="-416" type="line"/>
      <point x="390" y="32" type="line"/>
      <point x="417" y="9"/>
      <point x="500" y="-20"/>
      <point x="543" y="-20" type="qcurve" smooth="yes"/>
      <point x="614" y="-20"/>
      <point x="731" y="48"/>
      <point x="777" y="106" type="qcurve"/>
      <point x="783" y="106" type="line"/>
      <point x="789" y="0" type="line"/>
      <point x="1071" y="0" type="line"/>
      <point x="1071" y="939" type="line"/>
      <point x="771" y="939" type="line"/>
      <point x="771" y="322" type="line"/>
      <point x="736" y="262"/>
      <point x="631" y="193"/>
      <point x="564" y="193" type="qcurve" smooth="yes"/>
      <point x="485" y="193"/>
      <point x="398" y="281"/>
      <point x="398" y="383" type="qcurve" smooth="yes"/>
      <point x="398" y="939" type="line"/>
      <point x="98" y="939" type="line"/>
    </contour>
  </outline>
</glyph>
<glyph name="paragraph" format="1">
  <advance width="1305"/>
  <unicode hex="00B6"/>
  <outline>
    <contour>
      <point x="50" y="986" type="qcurve" smooth="yes"/>
      <point x="50" y="786"/>
      <point x="260" y="513"/>
      <point x="418" y="516" type="qcurve" smooth="yes"/>
      <point x="458" y="516" type="line"/>
      <point x="458" y="-200" type="line"/>
      <point x="728" y="-200" type="line"/>
      <point x="728" y="1221" type="line"/>
      <point x="868" y="1221" type="line"/>
      <point x="868" y="-200" type="line"/>
      <point x="1138" y="-200" type="line"/>
      <point x="1138" y="1221" type="line"/>
      <point x="1280" y="1221" type="line"/>
      <point x="1280" y="1456" type="line"/>
      <point x="418" y="1456" type="line" smooth="yes"/>
      <point x="260" y="1456"/>
      <point x="50" y="1186"/>
    </contour>
  </outline>
</glyph>
<glyph name="periodcentered" format="1">
  <advance width="615"/>
  <unicode hex="00B7"/>
  <outline>
    <contour>
      <point x="120" y="730" type="qcurve" smooth="yes"/>
      <point x="120" y="659"/>
      <point x="217" y="558"/>
      <point x="307" y="558" type="qcurve" smooth="yes"/>
      <point x="398" y="558"/>
      <point x="495" y="659"/>
      <point x="495" y="730" type="qcurve" smooth="yes"/>
      <point x="495" y="802"/>
      <point x="398" y="903"/>
      <point x="307" y="903" type="qcurve" smooth="yes"/>
      <point x="217" y="903"/>
      <point x="120" y="802"/>
    </contour>
  </outline>
</glyph>
<glyph name="questiondown" format="2">
  <advance width="1126"/>
  <unicode hex="00BF"/>
  <outline>
    <contour>
      <point x="98" y="101" type="qcurve" smooth="yes"/>
      <point x="98" y="-86"/>
      <point x="352" y="-300"/>
      <point x="579" y="-300" type="qcurve" smooth="yes"/>
      <point x="805" y="-300"/>
      <point x="1068" y="-96"/>
      <point x="1068" y="89" type="qcurve" smooth="yes"/>
      <point x="1068" y="119" type="line"/>
      <point x="753" y="119" type="line"/>
      <point x="753" y="89" type="line" smooth="yes"/>
      <point x="753" y="2"/>
      <point x="664" y="-89"/>
      <point x="579" y="-89" type="qcurve" smooth="yes"/>
      <point x="495" y="-89"/>
      <point x="412" y="7"/>
      <point x="412" y="101" type="qcurve" smooth="yes"/>
      <point x="412" y="192"/>
      <point x="485" y="302"/>
      <point x="584" y="372" type="qcurve" smooth="yes"/>
      <point x="690" y="457"/>
      <point x="774" y="615"/>
      <point x="774" y="736" type="qcurve" smooth="yes"/>
      <point x="774" y="746" type="line"/>
      <point x="459" y="746" type="line"/>
      <point x="459" y="736" type="line" smooth="yes"/>
      <point x="459" y="673"/>
      <point x="408" y="554"/>
      <point x="315" y="492" type="qcurve" smooth="yes"/>
      <point x="218" y="430"/>
      <point x="98" y="236"/>
    </contour>
    <contour>
      <point x="423" y="1043" type="qcurve" smooth="yes"/>
      <point x="423" y="979"/>
      <point x="521" y="888"/>
      <point x="612" y="888" type="qcurve" smooth="yes"/>
      <point x="703" y="888"/>
      <point x="800" y="979"/>
      <point x="800" y="1043" type="qcurve" smooth="yes"/>
      <point x="800" y="1107"/>
      <point x="703" y="1198"/>
      <point x="612" y="1198" type="qcurve" smooth="yes"/>
      <point x="521" y="1198"/>
      <point x="423" y="1107"/>
    </contour>
  </outline>
</glyph>
<glyph name="AE" format="2">
  <advance width="1696"/>
  <unicode hex="00C6"/>
  <outline>
    <contour>
      <point x="-110" y="0" type="line"/>
      <point x="187" y="0" type="line"/>
      <point x="756" y="1229" type="line"/>
      <point x="766" y="1229" type="line"/>
      <point x="766" y="0" type="line"/>
      <point x="1678" y="0" type="line"/>
      <point x="1678" y="214" type="line"/>
      <point x="1073" y="214" type="line"/>
      <point x="1073" y="644" type="line"/>
      <point x="1588" y="644" type="line"/>
      <point x="1588" y="858" type="line"/>
      <point x="1073" y="858" type="line"/>
      <point x="1073" y="1242" type="line"/>
      <point x="1669" y="1242" type="line"/>
      <point x="1669" y="1456" type="line"/>
      <point x="597" y="1456" type="line"/>
    </contour>
    <contour>
      <point x="169" y="345" type="line"/>
      <point x="850" y="345" type="line"/>
      <point x="850" y="559" type="line"/>
      <point x="292" y="559" type="line"/>
    </contour>
  </outline>
</glyph>
<glyph name="ae" format="1">
  <advance width="1736"/>
  <unicode hex="00E6"/>
  <outline>
    <contour>
      <point x="40" y="318" type="qcurve" smooth="yes"/>
      <point x="40" y="154"/>
      <point x="269" y="-20"/>
      <point x="432" y="-20" type="qcurve" smooth="yes"/>
      <point x="594" y="-20"/>
      <point x="808" y="74"/>
      <point x="874" y="157" type="qcurve"/>
      <point x="922" y="75"/>
      <point x="1130" y="-30"/>
      <point x="1266" y="-30" type="qcurve" smooth="yes"/>
      <point x="1426" y="-30"/>
      <point x="1654" y="100"/>
      <point x="1701" y="180" type="qcurve"/>
      <point x="1503" y="327" type="line"/>
      <point x="1465" y="265"/>
      <point x="1348" y="171"/>
      <point x="1266" y="171" type="qcurve" smooth="yes"/>
      <point x="1141" y="171"/>
      <point x="1023" y="375"/>
      <point x="1023" y="523" type="qcurve" smooth="yes"/>
      <point x="1023" y="556" type="line" smooth="yes"/>
      <point x="1023" y="704"/>
      <point x="1140" y="908"/>
      <point x="1253" y="908" type="qcurve" smooth="yes"/>
      <point x="1332" y="908"/>
      <point x="1431" y="767"/>
      <point x="1431" y="662" type="qcurve"/>
      <point x="1431" y="662" type="line"/>
      <point x="880" y="662" type="line"/>
      <point x="880" y="468" type="line"/>
      <point x="1730" y="468" type="line"/>
      <point x="1730" y="574" type="line" smooth="yes"/>
      <point x="1730" y="820"/>
      <point x="1480" y="1109"/>
      <point x="1253" y="1109" type="qcurve" smooth="yes"/>
      <point x="1142" y="1109"/>
      <point x="958" y="1036"/>
      <point x="904" y="963" type="qcurve"/>
      <point x="861" y="1039"/>
      <point x="680" y="1109"/>
      <point x="560" y="1109" type="qcurve" smooth="yes"/>
      <point x="346" y="1109"/>
      <point x="93" y="911"/>
      <point x="93" y="779" type="qcurve" smooth="yes"/>
      <point x="93" y="774" type="line"/>
      <point x="393" y="774" type="line"/>
      <point x="393" y="779" type="line" smooth="yes"/>
      <point x="393" y="833"/>
      <point x="468" y="915"/>
      <point x="556" y="915" type="qcurve" smooth="yes"/>
      <point x="650" y="915"/>
      <point x="727" y="816"/>
      <point x="727" y="738" type="qcurve" smooth="yes"/>
      <point x="727" y="678" type="line"/>
      <point x="547" y="678" type="line" smooth="yes"/>
      <point x="326" y="678"/>
      <point x="40" y="489"/>
    </contour>
    <contour>
      <point x="340" y="329" type="qcurve" smooth="yes"/>
      <point x="340" y="408"/>
      <point x="454" y="502"/>
      <point x="565" y="502" type="qcurve" smooth="yes"/>
      <point x="727" y="502" type="line"/>
      <point x="727" y="399" type="line"/>
      <point x="727" y="319"/>
      <point x="580" y="174"/>
      <point x="489" y="174" type="qcurve" smooth="yes"/>
      <point x="412" y="174"/>
      <point x="340" y="256"/>
    </contour>
  </outline>
</glyph>
<glyph name="thorn" format="1">
  <advance width="1185"/>
  <unicode hex="00FE"/>
  <outline>
    <contour>
      <point x="98" y="-416" type="line"/>
      <point x="398" y="-416" type="line"/>
      <point x="398" y="103" type="line"/>
      <point x="442" y="43"/>
      <point x="584" y="-20"/>
      <point x="677" y="-20" type="qcurve" smooth="yes"/>
      <point x="892" y="-20"/>
      <point x="1150" y="288"/>
      <point x="1150" y="523" type="qcurve" smooth="yes"/>
      <point x="1150" y="555" type="line" smooth="yes"/>
      <point x="1150" y="791"/>
      <point x="892" y="1099"/>
      <point x="677" y="1099" type="qcurve" smooth="yes"/>
      <point x="585" y="1099"/>
      <point x="439" y="1026"/>
      <point x="398" y="968" type="qcurve"/>
      <point x="398" y="1536" type="line"/>
      <point x="98" y="1536" type="line"/>
    </contour>
    <contour>
      <point x="398" y="371" type="qcurve"/>
      <point x="398" y="708" type="line"/>
      <point x="425" y="777"/>
      <point x="533" y="888"/>
      <point x="612" y="888" type="qcurve" smooth="yes"/>
      <point x="731" y="888"/>
      <point x="842" y="696"/>
      <point x="842" y="555" type="qcurve" smooth="yes"/>
      <point x="842" y="523" type="line" smooth="yes"/>
      <point x="842" y="383"/>
      <point x="731" y="191"/>
      <point x="612" y="191" type="qcurve" smooth="yes"/>
      <point x="533" y="191"/>
      <point x="425" y="302"/>
    </contour>
  </outline>
</glyph>
<glyph name="dotlessi" format="1">
  <advance width="514"/>
  <unicode hex="0131"/>
  <outline>
    <contour>
      <point x="107" y="0" type="line"/>
      <point x="407" y="0" type="line"/>
      <point x="407" y="1079" type="line"/>
      <point x="107" y="1079" type="line"/>
    </contour>
    <contour>
      <point x="257" y="1079" type="move" name="top"/>
    </contour>
  </outline>
</glyph>
<glyph name="oe" format="1">
  <advance width="1843"/>
  <unicode hex="0153"/>
  <outline>
    <contour>
      <point x="35" y="523" type="line" smooth="yes"/>
      <point x="35" y="279"/>
      <point x="335" y="-30"/>
      <point x="585" y="-30" type="qcurve" smooth="yes"/>
      <point x="714" y="-30"/>
      <point x="924" y="75"/>
      <point x="977" y="164" type="qcurve"/>
      <point x="1026" y="75"/>
      <point x="1239" y="-30"/>
      <point x="1379" y="-30" type="qcurve" smooth="yes"/>
      <point x="1536" y="-30"/>
      <point x="1761" y="101"/>
      <point x="1808" y="180" type="qcurve"/>
      <point x="1610" y="327" type="line"/>
      <point x="1572" y="265"/>
      <point x="1459" y="171"/>
      <point x="1379" y="171" type="qcurve" smooth="yes"/>
      <point x="1251" y="171"/>
      <point x="1130" y="375"/>
      <point x="1130" y="523" type="qcurve" smooth="yes"/>
      <point x="1130" y="556" type="line" smooth="yes"/>
      <point x="1130" y="704"/>
      <point x="1247" y="908"/>
      <point x="1360" y="908" type="qcurve" smooth="yes"/>
      <point x="1440" y="908"/>
      <point x="1539" y="767"/>
      <point x="1539" y="662" type="qcurve"/>
      <point x="1539" y="662" type="line"/>
      <point x="987" y="662" type="line"/>
      <point x="987" y="468" type="line"/>
      <point x="1837" y="468" type="line"/>
      <point x="1837" y="574" type="line" smooth="yes"/>
      <point x="1837" y="820"/>
      <point x="1587" y="1109"/>
      <point x="1360" y="1109" type="qcurve" smooth="yes"/>
      <point x="1234" y="1109"/>
      <point x="1026" y="1004"/>
      <point x="977" y="915" type="qcurve"/>
      <point x="924" y="1004"/>
      <point x="714" y="1109"/>
      <point x="585" y="1109" type="qcurve" smooth="yes"/>
      <point x="335" y="1109"/>
      <point x="35" y="799"/>
      <point x="35" y="556" type="qcurve" smooth="yes"/>
    </contour>
    <contour>
      <point x="343" y="523" type="qcurve" smooth="yes"/>
      <point x="343" y="556" type="line" smooth="yes"/>
      <point x="343" y="699"/>
      <point x="465" y="898"/>
      <point x="585" y="898" type="qcurve" smooth="yes"/>
      <point x="705" y="898"/>
      <point x="827" y="699"/>
      <point x="827" y="556" type="qcurve" smooth="yes"/>
      <point x="827" y="523" type="line" smooth="yes"/>
      <point x="827" y="379"/>
      <point x="705" y="181"/>
      <point x="585" y="181" type="qcurve" smooth="yes"/>
      <point x="465" y="181"/>
      <point x="343" y="379"/>
    </contour>
  </outline>
</glyph>
<glyph name="ring" format="1">
  <advance width="864"/>
  <unicode hex="02DA"/>
  <outline>
    <contour>
      <point x="151" y="1366" type="qcurve" smooth="yes"/>
      <point x="151" y="1254"/>
      <point x="310" y="1107"/>
      <point x="432" y="1107" type="qcurve" smooth="yes"/>
      <point x="554" y="1107"/>
      <point x="713" y="1254"/>
      <point x="713" y="1366" type="qcurve" smooth="yes"/>
      <point x="713" y="1478"/>
      <point x="554" y="1625"/>
      <point x="432" y="1625" type="qcurve" smooth="yes"/>
      <point x="310" y="1625"/>
      <point x="151" y="1478"/>
    </contour>
    <contour>
      <point x="346" y="1366" type="qcurve" smooth="yes"/>
      <point x="346" y="1416"/>
      <point x="393" y="1479"/>
      <point x="432" y="1479" type="qcurve" smooth="yes"/>
      <point x="472" y="1479"/>
      <point x="518" y="1416"/>
      <point x="518" y="1366" type="qcurve" smooth="yes"/>
      <point x="518" y="1317"/>
      <point x="472" y="1253"/>
      <point x="432" y="1253" type="qcurve" smooth="yes"/>
      <point x="393" y="1253"/>
      <point x="346" y="1317"/>
    </contour>
    <contour>
      <point x="432" y="1052" type="move" name="_top"/>
    </contour>
  </outline>
</glyph>
<glyph name="quotedblbase" format="1">
  <advance width="880"/>
  <unicode hex="201E"/>
  <outline>
    <contour>
      <point x="-28" y="-219" type="qcurve"/>
      <point x="131" y="-321" type="line"/>
      <point x="232" y="-243"/>
      <point x="350" y="-24"/>
      <point x="350" y="106" type="qcurve" smooth="yes"/>
      <point x="350" y="275" type="line"/>
      <point x="90" y="275" type="line"/>
      <point x="90" y="106" type="line" smooth="yes"/>
      <point x="90" y="5"/>
      <point x="31" y="-148"/>
    </contour>
    <contour>
      <point x="431" y="-219" type="qcurve"/>
      <point x="591" y="-321" type="line"/>
      <point x="692" y="-243"/>
      <point x="810" y="-24"/>
      <point x="810" y="106" type="qcurve" smooth="yes"/>
      <point x="810" y="275" type="line"/>
      <point x="550" y="275" type="line"/>
      <point x="550" y="106" type="line" smooth="yes"/>
      <point x="550" y="5"/>
      <point x="491" y="-148"/>
    </contour>
  </outline>
</glyph>
<glyph name="one.inferior" format="2">
  <advance width="651"/>
  <unicode hex="2081"/>
  <outline>
    <contour>
      <point x="445" y="422" type="line"/>
      <point x="427" y="422" type="line"/>
      <point x="73" y="306" type="line"/>
      <point x="73" y="177" type="line"/>
      <point x="289" y="234" type="line"/>
      <point x="289" y="-367" type="line"/>
      <point x="445" y="-367" type="line"/>
    </contour>
  </outline>
</glyph>
<glyph name="two.inferior" format="1">
  <advance width="651"/>
  <unicode hex="2082"/>
  <outline>
    <contour>
      <point x="633" y="-239" type="line"/>
      <point x="235" y="-239" type="line"/>
      <point x="410" y="-93" type="line" smooth="yes"/>
      <point x="497" y="-14"/>
      <point x="602" y="117"/>
      <point x="602" y="197" type="qcurve" smooth="yes"/>
      <point x="602" y="305"/>
      <point x="450" y="433"/>
      <point x="316" y="433" type="qcurve" smooth="yes"/>
      <point x="176" y="433"/>
      <point x="16" y="279"/>
      <point x="16" y="172" type="qcurve"/>
      <point x="174" y="172" type="line"/>
      <point x="174" y="229"/>
      <point x="245" y="305"/>
      <point x="320" y="305" type="qcurve" smooth="yes"/>
      <point x="379" y="305"/>
      <point x="443" y="243"/>
      <point x="443" y="195" type="qcurve" smooth="yes"/>
      <point x="443" y="162"/>
      <point x="390" y="74"/>
      <point x="323" y="12" type="qcurve" smooth="yes"/>
      <point x="35" y="-259" type="line"/>
      <point x="35" y="-367" type="line"/>
      <point x="633" y="-367" type="line"/>
    </contour>
  </outline>
</glyph>
<glyph name="numero" format="2">
  <advance width="2486"/>
  <unicode hex="2116"/>
  <outline>
    <contour>
      <point x="120" y="0" type="line"/>
      <point x="387" y="0" type="line"/>
      <point x="387" y="863" type="line" smooth="yes"/>
      <point x="387" y="893"/>
      <point x="383" y="968"/>
      <point x="379" y="998" type="qcurve"/>
      <point x="389" y="998" type="line"/>
      <point x="403" y="973"/>
      <point x="435" y="913"/>
      <point x="451" y="882" type="qcurve" smooth="yes"/>
      <point x="901" y="0" type="line"/>
      <point x="1259" y="0" type="line"/>
      <point x="1259" y="1456" type="line"/>
      <point x="991" y="1456" type="line"/>
      <point x="991" y="592" type="line" smooth="yes"/>
      <point x="991" y="562"/>
      <point x="995" y="491"/>
      <point x="999" y="457" type="qcurve"/>
      <point x="989" y="457" type="line"/>
      <point x="975" y="482"/>
      <point x="944" y="542"/>
      <point x="928" y="572" type="qcurve" smooth="yes"/>
      <point x="477" y="1456" type="line"/>
      <point x="120" y="1456" type="line"/>
    </contour>
    <contour>
      <point x="1434" y="105" type="line"/>
      <point x="1434" y="318" type="line"/>
      <point x="2381" y="318" type="line"/>
      <point x="2381" y="105" type="line"/>
    </contour>
    <contour>
      <point x="1399" y="964" type="qcurve" smooth="yes"/>
      <point x="1399" y="984" type="line" smooth="yes"/>
      <point x="1399" y="1194"/>
      <point x="1669" y="1476"/>
      <point x="1908" y="1476" type="qcurve" smooth="yes"/>
      <point x="2146" y="1476"/>
      <point x="2416" y="1194"/>
      <point x="2416" y="984" type="qcurve" smooth="yes"/>
      <point x="2416" y="964" type="line" smooth="yes"/>
      <point x="2416" y="754"/>
      <point x="2146" y="472"/>
      <point x="1908" y="472" type="qcurve" smooth="yes"/>
      <point x="1669" y="472"/>
      <point x="1399" y="754"/>
    </contour>
    <contour>
      <point x="1668" y="964" type="line" smooth="yes"/>
      <point x="1668" y="836"/>
      <point x="1788" y="673"/>
      <point x="1908" y="673" type="qcurve" smooth="yes"/>
      <point x="2028" y="673"/>
      <point x="2148" y="836"/>
      <point x="2148" y="964" type="qcurve" smooth="yes"/>
      <point x="2148" y="984" type="line" smooth="yes"/>
      <point x="2148" y="1113"/>
      <point x="2028" y="1275"/>
      <point x="1908" y="1275" type="qcurve" smooth="yes"/>
      <point x="1788" y="1275"/>
      <point x="1668" y="1113"/>
      <point x="1668" y="984" type="qcurve" smooth="yes"/>
    </contour>
  </outline>
</glyph>
<glyph name="divisionslash" format="2">
  <advance width="611"/>
  <unicode hex="2215"/>
  <outline>
    <contour>
      <point x="-100" y="-125" type="line"/>
      <point x="148" y="-125" type="line"/>
      <point x="661" y="1456" type="line"/>
      <point x="414" y="1456" type="line"/>
    </contour>
  </outline>
</glyph>
<glyph name="fl" format="1">
  <advance width="1164"/>
  <unicode hex="FB02"/>
  <outline>
    <contour>
      <point x="125" y="0" type="line"/>
      <point x="424" y="0" type="line"/>
      <point x="424" y="967" type="line"/>
      <point x="424" y="989" type="line"/>
      <point x="424" y="1140" type="line" smooth="yes"/>
      <point x="424" y="1245"/>
      <point x="507" y="1350"/>
      <point x="592" y="1350" type="qcurve" smooth="yes"/>
      <point x="649" y="1350"/>
      <point x="758" y="1316"/>
      <point x="805" y="1294" type="qcurve"/>
      <point x="837" y="1496" type="line"/>
      <point x="772" y="1526"/>
      <point x="626" y="1556"/>
      <point x="555" y="1556" type="qcurve" smooth="yes"/>
      <point x="356" y="1556"/>
      <point x="125" y="1344"/>
      <point x="125" y="1140" type="qcurve" smooth="yes"/>
    </contour>
    <contour>
      <point x="-25" y="878" type="line"/>
      <point x="644" y="878" type="line"/>
      <point x="644" y="1079" type="line"/>
      <point x="283" y="1079" type="line"/>
      <point x="243" y="1079" type="line"/>
      <point x="-25" y="1079" type="line"/>
    </contour>
    <contour>
      <point x="758" y="0" type="line"/>
      <point x="1058" y="0" type="line"/>
      <point x="1058" y="1496" type="line"/>
      <point x="758" y="1496" type="line"/>
    </contour>
  </outline>
</glyph>
<glyph name="f_f_l" format="1">
  <advance width="1771"/>
  <unicode hex="FB04"/>
  <outline>
    <contour>
      <point x="125" y="0" type="line"/>
      <point x="424" y="0" type="line"/>
      <point x="424" y="967" type="line"/>
      <point x="424" y="989" type="line"/>
      <point x="424" y="1140" type="line" smooth="yes"/>
      <point x="424" y="1245"/>
      <point x="499" y="1350"/>
      <point x="580" y="1350" type="qcurve" smooth="yes"/>
      <point x="633" y="1350"/>
      <point x="733" y="1320"/>
      <point x="777" y="1301" type="qcurve"/>
      <point x="808" y="1505" type="line"/>
      <point x="746" y="1530"/>
      <point x="610" y="1556"/>
      <point x="543" y="1556" type="qcurve" smooth="yes"/>
      <point x="350" y="1556"/>
      <point x="125" y="1344"/>
      <point x="125" y="1140" type="qcurve" smooth="yes"/>
    </contour>
    <contour>
      <point x="-25" y="878" type="line"/>
      <point x="644" y="878" type="line"/>
      <point x="644" y="1079" type="line"/>
      <point x="283" y="1079" type="line"/>
      <point x="243" y="1079" type="line"/>
      <point x="-25" y="1079" type="line"/>
    </contour>
    <contour>
      <point x="732" y="0" type="line"/>
      <point x="1032" y="0" type="line"/>
      <point x="1032" y="967" type="line"/>
      <point x="1032" y="989" type="line"/>
      <point x="1032" y="1140" type="line" smooth="yes"/>
      <point x="1032" y="1245"/>
      <point x="1115" y="1350"/>
      <point x="1199" y="1350" type="qcurve" smooth="yes"/>
      <point x="1256" y="1350"/>
      <point x="1366" y="1316"/>
      <point x="1412" y="1294" type="qcurve"/>
      <point x="1444" y="1496" type="line"/>
      <point x="1380" y="1526"/>
      <point x="1234" y="1556"/>
      <point x="1162" y="1556" type="qcurve" smooth="yes"/>
      <point x="963" y="1556"/>
      <point x="732" y="1344"/>
      <point x="732" y="1140" type="qcurve" smooth="yes"/>
    </contour>
    <contour>
      <point x="580" y="878" type="line"/>
      <point x="1250" y="878" type="line"/>
      <point x="1250" y="1079" type="line"/>
      <point x="888" y="1079" type="line"/>
      <point x="848" y="1079" type="line"/>
      <point x="580" y="1079" type="line"/>
    </contour>
    <contour>
      <point x="1365" y="0" type="line"/>
      <point x="1665" y="0" type="line"/>
      <point x="1665" y="1496" type="line"/>
      <point x="1365" y="1496" type="line"/>
    </contour>
  </outline>
</glyph>
<glyph name="bitcoin" format="1">
  <advance width="1268"/>
  <outline>
    <contour>
      <point x="120" y="0" type="line"/>
      <point x="679" y="0" type="line" smooth="yes"/>
      <point x="922" y="0"/>
      <point x="1218" y="220"/>
      <point x="1218" y="420" type="qcurve" smooth="yes"/>
      <point x="1218" y="560"/>
      <point x="1095" y="732"/>
      <point x="999" y="764" type="qcurve"/>
      <point x="999" y="768" type="line"/>
      <point x="1078" y="800"/>
      <point x="1184" y="950"/>
      <point x="1184" y="1070" type="qcurve" smooth="yes"/>
      <point x="1184" y="1270"/>
      <point x="901" y="1456"/>
      <point x="653" y="1456" type="qcurve" smooth="yes"/>
      <point x="120" y="1456" type="line"/>
    </contour>
    <contour>
      <point x="428" y="204" type="line"/>
      <point x="428" y="659" type="line"/>
      <point x="679" y="659" type="line" smooth="yes"/>
      <point x="798" y="659"/>
      <point x="909" y="537"/>
      <point x="909" y="432" type="qcurve" smooth="yes"/>
      <point x="909" y="327"/>
      <point x="798" y="204"/>
      <point x="679" y="204" type="qcurve" smooth="yes"/>
    </contour>
    <contour>
      <point x="428" y="857" type="line"/>
      <point x="428" y="1252" type="line"/>
      <point x="653" y="1252" type="line" smooth="yes"/>
      <point x="771" y="1252"/>
      <point x="876" y="1150"/>
      <point x="876" y="1056" type="qcurve" smooth="yes"/>
      <point x="876" y="962"/>
      <point x="771" y="857"/>
      <point x="653" y="857" type="qcurve" smooth="yes"/>
    </contour>
    <contour>
      <point x="6" y="343" type="line"/>
      <point x="260" y="343" type="line"/>
      <point x="264" y="355" type="line"/>
      <point x="620" y="355" type="line"/>
      <point x="620" y="533" type="line"/>
      <point x="264" y="533" type="line"/>
      <point x="260" y="546" type="line"/>
      <point x="6" y="546" type="line"/>
    </contour>
  </outline>
</glyph>
<glyph name="eight.pnum" format="2">
  <advance width="1225"/>
  <outline>
    <contour>
      <point x="2" y="383" type="qcurve" smooth="yes"/>
      <point x="2" y="191"/>
      <point x="346" y="-20"/>
      <point x="613" y="-20" type="qcurve" smooth="yes"/>
      <point x="879" y="-20"/>
      <point x="1223" y="176"/>
      <point x="1223" y="399" type="qcurve" smooth="yes"/>
      <point x="1223" y="549"/>
      <point x="1060" y="720"/>
      <point x="956" y="748" type="qcurve"/>
      <point x="956" y="752" type="line"/>
      <point x="1046" y="791"/>
      <point x="1172" y="947"/>
      <point x="1172" y="1088" type="qcurve" smooth="yes"/>
      <point x="1172" y="1267"/>
      <point x="852" y="1475"/>
      <point x="613" y="1475" type="qcurve" smooth="yes"/>
      <point x="373" y="1475"/>
      <point x="53" y="1275"/>
      <point x="53" y="1090" type="qcurve" smooth="yes"/>
      <point x="53" y="916"/>
      <point x="182" y="781"/>
      <point x="274" y="749" type="qcurve"/>
      <point x="274" y="745" type="line"/>
      <point x="164" y="705"/>
      <point x="2" y="526"/>
    </contour>
    <contour>
      <point x="526" y="438" type="qcurve" smooth="yes"/>
      <point x="526" y="550"/>
      <point x="566" y="645"/>
      <point x="614" y="645" type="qcurve" smooth="yes"/>
      <point x="663" y="645"/>
      <point x="703" y="550"/>
      <point x="703" y="438" type="qcurve" smooth="yes"/>
      <point x="703" y="330"/>
      <point x="665" y="239"/>
      <point x="614" y="239" type="qcurve" smooth="yes"/>
      <point x="564" y="239"/>
      <point x="526" y="330"/>
    </contour>
    <contour>
      <point x="527" y="1020" type="qcurve" smooth="yes"/>
      <point x="528" y="1129"/>
      <point x="568" y="1215"/>
      <point x="611" y="1215" type="qcurve" smooth="yes"/>
      <point x="654" y="1215"/>
      <point x="696" y="1128"/>
      <point x="696" y="1020" type="qcurve" smooth="yes"/>
      <point x="696" y="952"/>
      <point x="654" y="861"/>
      <point x="611" y="861" type="qcurve" smooth="yes"/>
      <point x="568" y="861"/>
      <point x="525" y="951"/>
    </contour>
  </outline>
</glyph>
<glyph name="nine.pnum" format="2">
  <advance width="1278"/>
  <outline>
    <contour>
      <point x="1252" y="915" type="line" smooth="yes"/>
      <point x="1252" y="1196"/>
      <point x="916" y="1476"/>
      <point x="621" y="1476" type="qcurve" smooth="yes"/>
      <point x="352" y="1476"/>
      <point x="24" y="1181"/>
      <point x="24" y="948" type="qcurve" smooth="yes"/>
      <point x="24" y="747"/>
      <point x="322" y="500"/>
      <point x="566" y="500" type="qcurve" smooth="yes"/>
      <point x="779" y="500"/>
      <point x="1034" y="785"/>
      <point x="1034" y="1007" type="qcurve"/>
      <point x="731" y="1007" type="line"/>
      <point x="731" y="862"/>
      <point x="686" y="724"/>
      <point x="630" y="724" type="qcurve" smooth="yes"/>
      <point x="579" y="724"/>
      <point x="546" y="838"/>
      <point x="546" y="967" type="qcurve" smooth="yes"/>
      <point x="546" y="1106"/>
      <point x="582" y="1193"/>
      <point x="632" y="1193" type="qcurve" smooth="yes"/>
      <point x="682" y="1193"/>
      <point x="728" y="1073"/>
      <point x="728" y="929" type="qcurve" smooth="yes"/>
      <point x="728" y="721" type="line" smooth="yes"/>
      <point x="728" y="484"/>
      <point x="534" y="336"/>
      <point x="332" y="327" type="qcurve" smooth="yes"/>
      <point x="171" y="320" type="line"/>
      <point x="171" y="0" type="line"/>
      <point x="332" y="0" type="line" smooth="yes"/>
      <point x="716" y="0"/>
      <point x="1252" y="422"/>
      <point x="1252" y="771" type="qcurve" smooth="yes"/>
    </contour>
  </outline>
</glyph>
<glyph name="six.pnum" format="2">
  <advance width="1278"/>
  <outline>
    <contour>
      <point x="26" y="541" type="line" smooth="yes"/>
      <point x="26" y="260"/>
      <point x="362" y="-20"/>
      <point x="657" y="-20" type="qcurve" smooth="yes"/>
      <point x="926" y="-20"/>
      <point x="1254" y="275"/>
      <point x="1254" y="508" type="qcurve" smooth="yes"/>
      <point x="1254" y="719"/>
      <point x="956" y="976"/>
      <point x="712" y="976" type="qcurve" smooth="yes"/>
      <point x="499" y="976"/>
      <point x="244" y="691"/>
      <point x="244" y="469" type="qcurve"/>
      <point x="547" y="469" type="line"/>
      <point x="547" y="614"/>
      <point x="592" y="752"/>
      <point x="648" y="752" type="qcurve" smooth="yes"/>
      <point x="699" y="752"/>
      <point x="732" y="638"/>
      <point x="732" y="489" type="qcurve" smooth="yes"/>
      <point x="732" y="350"/>
      <point x="696" y="263"/>
      <point x="646" y="263" type="qcurve" smooth="yes"/>
      <point x="596" y="263"/>
      <point x="550" y="383"/>
      <point x="550" y="527" type="qcurve" smooth="yes"/>
      <point x="550" y="735" type="line" smooth="yes"/>
      <point x="550" y="972"/>
      <point x="744" y="1149"/>
      <point x="946" y="1158" type="qcurve" smooth="yes"/>
      <point x="1107" y="1166" type="line"/>
      <point x="1107" y="1486" type="line"/>
      <point x="946" y="1486" type="line" smooth="yes"/>
      <point x="562" y="1486"/>
      <point x="26" y="1034"/>
      <point x="26" y="685" type="qcurve" smooth="yes"/>
    </contour>
  </outline>
</glyph>
<glyph name="two.pnum" format="1">
  <advance width="1149"/>
  <outline>
    <contour>
      <point x="59" y="0" type="line"/>
      <point x="1121" y="0" type="line"/>
      <point x="1121" y="228" type="line"/>
      <point x="499" y="228" type="line"/>
      <point x="862" y="651" type="line" smooth="yes"/>
      <point x="977" y="775"/>
      <point x="1100" y="961"/>
      <point x="1100" y="1085" type="qcurve" smooth="yes"/>
      <point x="1100" y="1256"/>
      <point x="819" y="1486"/>
      <point x="585" y="1486" type="qcurve" smooth="yes"/>
      <point x="351" y="1486"/>
      <point x="44" y="1233"/>
      <point x="44" y="1010" type="qcurve" smooth="yes"/>
      <point x="44" y="1000" type="line"/>
      <point x="360" y="1000" type="line"/>
      <point x="360" y="1010" type="line" smooth="yes"/>
      <point x="360" y="1146"/>
      <point x="491" y="1267"/>
      <point x="585" y="1267" type="qcurve" smooth="yes"/>
      <point x="680" y="1267"/>
      <point x="785" y="1163"/>
      <point x="785" y="1075" type="qcurve" smooth="yes"/>
      <point x="785" y="995"/>
      <point x="687" y="864"/>
      <point x="601" y="774" type="qcurve" smooth="yes"/>
      <point x="59" y="210" type="line"/>
    </contour>
  </outline>
</glyph>
<glyph name="zero.pnum" format="2">
  <advance width="1298"/>
  <outline>
    <contour>
      <point x="37" y="505" type="line" smooth="yes"/>
      <point x="37" y="287"/>
      <point x="356" y="-20"/>
      <point x="649" y="-20" type="qcurve" smooth="yes"/>
      <point x="942" y="-20"/>
      <point x="1261" y="287"/>
      <point x="1261" y="505" type="qcurve" smooth="yes"/>
      <point x="1261" y="961" type="line" smooth="yes"/>
      <point x="1261" y="1181"/>
      <point x="944" y="1476"/>
      <point x="649" y="1476" type="qcurve" smooth="yes"/>
      <point x="354" y="1476"/>
      <point x="37" y="1181"/>
      <point x="37" y="961" type="qcurve" smooth="yes"/>
    </contour>
    <contour>
      <point x="566" y="413" type="qcurve" smooth="yes"/>
      <point x="566" y="1071" type="line" smooth="yes"/>
      <point x="566" y="1121"/>
      <point x="606" y="1188"/>
      <point x="649" y="1188" type="qcurve" smooth="yes"/>
      <point x="692" y="1188"/>
      <point x="734" y="1121"/>
      <point x="734" y="1071" type="qcurve" smooth="yes"/>
      <point x="734" y="413" type="line" smooth="yes"/>
      <point x="734" y="354"/>
      <point x="692" y="270"/>
      <point x="649" y="270" type="qcurve" smooth="yes"/>
      <point x="606" y="270"/>
      <point x="566" y="354"/>
    </contour>
  </outline>
</glyph>
